<?xml version="1.0" encoding="utf-8"?>
<!-- Generator: Adobe Illustrator 16.0.0, SVG Export Plug-In . SVG Version: 6.00 Build 0)  -->
<!DOCTYPE svg PUBLIC "-//W3C//DTD SVG 1.1//EN" "http://www.w3.org/Graphics/SVG/1.1/DTD/svg11.dtd">
<svg version="1.1" id="Texte_1_" xmlns="http://www.w3.org/2000/svg" xmlns:xlink="http://www.w3.org/1999/xlink" x="0px" y="0px"
	 width="356.702px" height="136.288px" viewBox="0 0 356.702 136.288" enable-background="new 0 0 356.702 136.288"
	 xml:space="preserve">
<g id="Contour_2_">
	<g>
		<g>
			<path fill="#CCC5A3" d="M345.812,29.506c2.244,0,4.079,0.478,5.503,1.432c2.137,1.429,3.087,3.745,2.853,6.948
				c-0.347,4.764-2.942,9.172-7.791,13.23c-4.845,4.058-10.844,6.732-17.99,8.018l-1.156,0.209c0.001,2.895,0.573,4.934,1.72,6.112
				c0.838,0.86,2.015,1.292,3.532,1.292c0.559,0,1.163-0.059,1.813-0.176c1.035-0.187,2.05-0.533,3.045-1.038
				c0.993-0.507,2.199-1.306,3.618-2.396c0.778-0.609,1.756-1.452,2.937-2.524c1.181-1.076,1.967-1.647,2.366-1.719
				c0.127-0.023,0.253-0.034,0.378-0.034c0.554,0,1.081,0.227,1.583,0.681c0.613,0.555,0.891,1.217,0.838,1.982
				c-0.049,0.662-0.317,1.371-0.806,2.125c-0.489,0.752-1.179,1.521-2.075,2.31c-2.945,2.621-5.959,4.742-9.04,6.367
				c-3.083,1.625-6.193,2.722-9.327,3.285c-1.445,0.26-2.796,0.39-4.053,0.39c-3.201,0-5.789-0.844-7.766-2.531
				c-2.751-2.354-3.945-6.016-3.583-10.99c0.284-3.892,1.356-7.786,3.215-11.686c1.858-3.897,4.316-7.401,7.376-10.512
				c2.549-2.599,5.537-4.837,8.966-6.705c3.427-1.871,6.815-3.107,10.162-3.71C343.459,29.626,344.687,29.506,345.812,29.506
				 M329.412,52.77c0.25,0,0.524-0.027,0.824-0.081c2.497-0.449,4.868-1.955,7.112-4.511c2.244-2.56,3.468-5.201,3.665-7.926
				c0.098-1.298-0.11-2.22-0.622-2.769c-0.373-0.399-0.908-0.6-1.605-0.6c-0.256,0-0.534,0.027-0.834,0.081
				c-1.009,0.182-1.979,0.636-2.913,1.365c-0.931,0.729-1.894,1.798-2.89,3.204c-1.053,1.521-1.984,3.308-2.789,5.357
				c-0.805,2.053-1.255,3.725-1.351,5.023c-0.025,0.342,0.173,0.588,0.596,0.734C328.838,52.729,329.107,52.77,329.412,52.77
				 M345.812,27.006L345.812,27.006c-1.268,0-2.655,0.135-4.125,0.398c-3.6,0.648-7.272,1.986-10.918,3.977
				c-3.62,1.973-6.835,4.378-9.553,7.148c-3.236,3.291-5.877,7.055-7.848,11.187c-1.984,4.165-3.146,8.397-3.451,12.58
				c-0.422,5.786,1.076,10.185,4.451,13.071c2.435,2.079,5.594,3.132,9.391,3.132c1.398,0,2.911-0.145,4.495-0.429
				c3.369-0.606,6.751-1.795,10.051-3.534c3.25-1.715,6.458-3.973,9.536-6.712c1.047-0.92,1.895-1.87,2.509-2.813
				c0.72-1.111,1.123-2.222,1.203-3.305c0.105-1.536-0.481-2.96-1.654-4.021c-1.212-1.097-2.441-1.326-3.26-1.326
				c-0.272,0-0.549,0.024-0.822,0.074c-0.949,0.169-1.928,0.801-3.606,2.331c-1.145,1.04-2.086,1.85-2.793,2.403
				c-1.274,0.979-2.361,1.703-3.214,2.139c-0.771,0.391-1.563,0.662-2.352,0.805c-0.501,0.09-0.962,0.136-1.37,0.136
				c-1.22,0-1.612-0.404-1.741-0.536c-0.27-0.277-0.671-0.911-0.877-2.313c7.1-1.428,13.192-4.239,18.118-8.364
				c5.362-4.489,8.283-9.524,8.679-14.966c0.379-5.171-1.942-7.861-3.956-9.208C350.87,27.63,348.551,27.006,345.812,27.006
				L345.812,27.006z M330.955,49.908c0.175-0.589,0.412-1.285,0.732-2.104c0.729-1.855,1.576-3.487,2.518-4.847
				c0.837-1.182,1.642-2.084,2.376-2.659c0.61-0.477,1.205-0.763,1.814-0.873c0.048-0.008,0.093-0.016,0.133-0.021
				c0.012,0.156,0.014,0.372-0.008,0.66c-0.158,2.191-1.156,4.304-3.052,6.465C333.991,48.212,332.479,49.344,330.955,49.908
				L330.955,49.908z"/>
		</g>
		<g>
			<g>
				<path fill="#CCC5A3" d="M305.069,17.562c2.704,0,6.516,2.717,5.613,5.764c-1.823,6.15-17.885,9.04-17.885,9.04
					s6.465-6.114,10.032-13.589C303.236,17.927,304.078,17.562,305.069,17.562 M305.069,15.062c-2.056,0-3.695,0.961-4.495,2.638
					c-3.329,6.975-9.433,12.792-9.494,12.85l-6.092,5.762l8.252-1.485c2.935-0.528,17.687-3.53,19.839-10.79
					c0.54-1.823,0.157-3.739-1.08-5.395C310.427,16.533,307.577,15.062,305.069,15.062L305.069,15.062z"/>
			</g>
			<g>
				<path fill="#CCC5A3" d="M304.724,36.913c2.259,0,4.104,0.484,5.536,1.442c2.137,1.43,3.081,3.781,2.847,6.98
					c-0.347,4.766-2.957,9.241-7.806,13.303c-4.845,4.057-10.869,6.864-18.019,8.15l-1.155,0.208
					c-0.255,4.11,0.597,4.802,1.745,5.979c0.798,0.819,1.917,1.184,3.338,1.184c0.621,0,1.3-0.069,2.036-0.202
					c1.036-0.187,2.051-0.534,3.044-1.038c0.996-0.508,2.201-1.306,3.618-2.396c0.781-0.609,1.758-1.452,2.937-2.524
					c1.181-1.076,1.971-1.647,2.37-1.72c0.126-0.022,0.25-0.034,0.374-0.034c0.553,0,1.079,0.227,1.583,0.681
					c0.614,0.556,0.895,1.218,0.84,1.984c-0.051,0.66-0.317,1.37-0.806,2.123s-1.181,1.523-2.075,2.311
					c-2.946,2.621-5.959,4.742-9.04,6.367c-3.082,1.625-6.191,2.721-9.326,3.285c-1.445,0.26-2.795,0.39-4.051,0.39
					c-3.203,0-5.792-0.844-7.768-2.532c-2.751-2.354-3.946-6.014-3.582-10.99c0.283-3.889,1.354-7.781,3.214-11.682
					c1.856-3.898,4.314-7.401,7.374-10.512c2.55-2.598,5.537-4.828,8.964-6.698c3.43-1.873,6.814-3.101,10.163-3.703
					C302.394,37.03,303.609,36.913,304.724,36.913 M288.365,60.155c0.249,0,0.523-0.026,0.82-0.08
					c2.499-0.45,4.87-1.955,7.115-4.512c2.244-2.56,3.467-5.201,3.665-7.926c0.097-1.297-0.108-2.221-0.622-2.769
					c-0.374-0.4-0.909-0.6-1.604-0.6c-0.256,0-0.534,0.027-0.833,0.081c-1.014,0.182-1.982,0.636-2.913,1.365
					c-0.932,0.729-1.896,1.797-2.891,3.203c-1.054,1.521-1.987,3.309-2.788,5.358c-0.808,2.053-1.256,3.724-1.351,5.022
					c-0.027,0.343,0.172,0.588,0.594,0.735C287.79,60.115,288.059,60.155,288.365,60.155 M304.724,34.413L304.724,34.413
					c-1.26,0-2.635,0.133-4.089,0.395c-3.612,0.65-7.285,1.985-10.918,3.969c-3.63,1.981-6.843,4.384-9.55,7.141
					c-3.24,3.293-5.88,7.059-7.847,11.188c-1.984,4.163-3.146,8.395-3.45,12.575c-0.424,5.785,1.074,10.183,4.45,13.071
					c2.434,2.079,5.594,3.133,9.393,3.133c1.398,0,2.91-0.145,4.494-0.429c3.373-0.607,6.753-1.796,10.05-3.534
					c3.247-1.712,6.455-3.97,9.536-6.711c1.053-0.926,1.901-1.877,2.511-2.818c0.713-1.1,1.117-2.208,1.201-3.292
					c0.11-1.539-0.479-2.966-1.655-4.03c-1.219-1.097-2.445-1.327-3.26-1.327c-0.271,0-0.545,0.025-0.816,0.074
					c-0.958,0.173-1.937,0.805-3.612,2.333c-1.165,1.06-2.078,1.845-2.79,2.401c-1.274,0.981-2.36,1.704-3.216,2.141
					c-0.772,0.392-1.565,0.663-2.352,0.805c-0.599,0.108-1.136,0.162-1.593,0.162c-1.13,0-1.444-0.323-1.548-0.429l-0.139-0.142
					c-0.537-0.547-0.853-0.868-0.93-2.004c7.07-1.404,13.227-4.271,18.312-8.529c5.371-4.499,8.295-9.558,8.694-15.039
					c0.381-5.197-1.938-7.893-3.95-9.239C309.799,35.04,307.469,34.413,304.724,34.413L304.724,34.413z M289.908,57.293
					c0.175-0.589,0.412-1.284,0.733-2.101c0.724-1.853,1.57-3.483,2.517-4.85c0.836-1.181,1.64-2.082,2.375-2.657
					c0.611-0.479,1.204-0.764,1.814-0.874c0.048-0.009,0.093-0.016,0.133-0.021c0.011,0.157,0.014,0.373-0.008,0.662
					c-0.159,2.19-1.157,4.303-3.052,6.464C292.945,55.596,291.431,56.729,289.908,57.293L289.908,57.293z"/>
			</g>
		</g>
		<g>
			<path fill="#CCC5A3" d="M247.35,26.367c2.068,0,3.7,0.731,3.433,2.936c-0.102,0.841-4.464,21.364-4.464,21.364
				c5.734-2.922,10.044-4.138,13.249-4.138c14.896,0,5.939,26.267,5.393,29.597c-0.871,5.309,2.392,4.369,0.467,8.063
				c-1.075,2.066-10.029,5.432-15.395,5.432c-2.671,0-4.452-0.834-3.93-3.076c1.011-4.344,2.85-2.842,3.895-9.056
				c1.084-6.468,2.521-13.35,2.664-16.579c0.142-3.199-0.827-4.355-2.124-4.355c-1.743,0-4.08,2.087-5.118,4.105
				c-1.813,3.52-6.313,24.534-4.232,27.83c1.017,1.609-8.771,5.349-14.624,5.349c-2.021,0-3.572-0.445-4.05-1.578
				c-0.876-2.077,1.837-2.865,3.733-8.454c1.81-5.331,8.046-37.215,8.209-39.236c0.14-1.772-0.049-4.154-0.557-6.614
				c-1-4.838,0.375-6.343,7.11-9.984C242.427,27.204,245.138,26.367,247.35,26.367 M247.35,23.867L247.35,23.867
				c-2.631,0-5.779,0.958-7.529,1.904c-6.875,3.717-9.744,6.041-8.37,12.689c0.45,2.18,0.637,4.335,0.513,5.912
				c-0.213,2.234-6.344,33.502-8.084,38.629c-0.799,2.355-1.741,3.703-2.498,4.786c-0.963,1.379-2.162,3.095-1.172,5.443
				c0.597,1.417,2.185,3.106,6.354,3.106c5.066,0,15.01-2.836,16.792-6.068c0.26-0.471,0.394-0.976,0.404-1.474
				c0.182,0.521,0.44,0.939,0.695,1.261c1.087,1.369,2.964,2.063,5.578,2.063c5.298,0,15.794-3.283,17.612-6.777
				c1.457-2.796,0.867-4.387,0.139-5.777c-0.363-0.693-0.65-1.242-0.356-3.034c0.052-0.312,0.271-1.158,0.502-2.055
				c1.677-6.485,5.167-19.981-0.04-26.705c-1.322-1.708-3.839-3.742-8.321-3.742c-2.78,0-6.003,0.75-9.77,2.282
				c1.459-6.887,3.385-16.033,3.467-16.709c0.237-1.957-0.471-3.223-1.105-3.94C251.104,24.472,249.485,23.867,247.35,23.867
				L247.35,23.867z M243.335,87.211c-1.186-2.998,2.582-22.059,4.307-25.407c0.611-1.189,1.741-2.187,2.453-2.576
				c0.057,0.316,0.103,0.817,0.069,1.571c-0.092,2.076-0.816,6.083-1.583,10.325c-0.353,1.948-0.716,3.962-1.05,5.951
				c-0.478,2.844-1.051,3.577-1.715,4.428c-0.703,0.899-1.577,2.019-2.148,4.475c-0.137,0.585-0.177,1.114-0.15,1.589
				C243.466,87.445,243.404,87.327,243.335,87.211L243.335,87.211z"/>
		</g>
		<g>
			<path fill="#CCC5A3" d="M217.927,41.422c2.538,0.13,0.078,10.776,0.078,10.776l8.132,1.766c0.007-0.001,0.013-0.002,0.019-0.002
				c0.521,0-0.271,4.242-1.406,4.555c0,0-8.915,4.662-9.087,4.895c-0.939,1.271-3.942,17.564-3.942,17.564
				c-0.08,0.341-0.146,0.693-0.203,1.061c-0.054,0.363-0.1,0.809-0.144,1.337c-0.109,1.382,0.181,2.375,0.864,2.976
				c0.687,0.6,8.317,3.041,3.405,7.144c-2.629,2.194-7.806,3.622-10.144,4.043c-0.859,0.154-1.653,0.232-2.382,0.232
				c-1.749,0-3.119-0.446-4.112-1.339c-1.404-1.262-1.993-3.359-1.762-6.295c0.094-1.137,0.51-3.452,1.257-6.943l0.007-0.084
				l3.889-17.309l-5.32-1.984c-0.006,0.001-0.012,0.002-0.018,0.002c-0.434,0,0.699-3.268,0.699-3.268
				c0.471-1.97,4.086-3.02,8.865-7.239c3.2-2.825,3.888-10.39,5.109-10.772L217.927,41.422 M217.768,38.91l-0.283,0.051
				l-6.195,1.114l-0.155,0.028l-0.149,0.047c-1.759,0.551-2.283,2.279-3.077,4.895c-0.627,2.064-1.574,5.185-2.939,6.39
				c-1.997,1.763-3.795,2.947-5.239,3.899c-2.135,1.407-3.832,2.525-4.367,4.491c-1.074,3.118-1.162,4.338-0.401,5.406
				c0.351,0.493,0.861,0.842,1.434,0.996l3.085,1.15l-3.411,15.181l-0.038,0.171l-0.008,0.097c-0.75,3.518-1.166,5.842-1.27,7.103
				c-0.296,3.745,0.573,6.555,2.582,8.359c1.461,1.313,3.407,1.979,5.783,1.979c0.873,0,1.823-0.092,2.825-0.272
				c2.563-0.461,8.222-2.013,11.302-4.584c2.345-1.958,2.656-3.874,2.505-5.137c-0.381-3.164-3.759-4.824-5.574-5.716
				c-0.101-0.049-0.193-0.094-0.275-0.135c-0.034-0.14-0.069-0.415-0.034-0.854c0.042-0.5,0.083-0.885,0.124-1.169
				c0.048-0.304,0.102-0.588,0.164-0.854l0.014-0.06l0.012-0.06c1.224-6.642,2.773-14.116,3.468-16.298
				c1.369-0.766,4.89-2.635,8.123-4.327c2.713-1.128,3.143-5.958,3.013-6.917c-0.201-1.484-1.25-2.248-2.26-2.397l-5.563-1.208
				c0.723-3.891,1.036-8.104-0.398-10.006c-0.618-0.819-1.509-1.299-2.507-1.351L217.768,38.91L217.768,38.91z"/>
		</g>
		<g>
			<path fill="#CCC5A3" d="M180.116,59.375c3.547,0,6.442,0.966,8.683,2.897c3.085,2.658,4.428,6.711,4.027,12.162
				c-0.234,3.203-1.072,6.441-2.519,9.719c-1.445,3.275-3.399,6.35-5.865,9.221c-2.584,3.053-5.494,5.561-8.73,7.527
				c-3.238,1.965-6.626,3.268-10.16,3.902c-1.399,0.252-2.725,0.378-3.977,0.378c-3.598,0-6.59-1.041-8.977-3.118
				c-3.219-2.803-4.634-6.852-4.247-12.145c0.243-3.307,1.078-6.506,2.512-9.598s3.477-6.129,6.134-9.113
				c2.687-3.042,5.676-5.56,8.968-7.549c3.295-1.989,6.585-3.281,9.88-3.875C177.36,59.512,178.784,59.375,180.116,59.375
				 M167.512,95.956c0.179,0,0.371-0.022,0.575-0.068c4.729-1.07,7.12-10.722,8.312-16.008c0.751-3.323,1.559-10.453-2.246-10.452
				c-0.172,0-0.355,0.015-0.547,0.045c-4.052,0.644-5.541,4.614-7.661,13.787C165.168,86.616,163.831,95.956,167.512,95.956
				 M180.116,56.875c-1.474,0-3.06,0.151-4.715,0.448c-3.576,0.645-7.186,2.056-10.729,4.195c-3.493,2.11-6.705,4.813-9.55,8.034
				c-2.798,3.143-4.997,6.415-6.528,9.716c-1.551,3.346-2.472,6.867-2.737,10.466c-0.446,6.098,1.27,10.879,5.099,14.213
				c2.846,2.477,6.418,3.733,10.619,3.733c1.395,0,2.882-0.141,4.42-0.417c3.817-0.686,7.522-2.107,11.014-4.226
				c3.456-2.1,6.598-4.808,9.342-8.049c2.6-3.027,4.705-6.338,6.244-9.827c1.554-3.521,2.47-7.068,2.725-10.545
				c0.46-6.257-1.185-11.047-4.889-14.239C187.734,58.054,184.263,56.875,180.116,56.875L180.116,56.875z M167.845,93.348
				c-0.486-1.385-0.387-5.535,0.535-9.525c2.045-8.849,3.306-11.514,5.618-11.881c0.045-0.007,0.083-0.011,0.111-0.013
				c0.496,0.725,0.676,3.75-0.149,7.399C171.54,90.065,169.194,92.771,167.845,93.348L167.845,93.348z"/>
		</g>
		<g>
			<path fill="#CCC5A3" d="M145.955,66.185c3.45,0,5.192,3.167,4.731,5.374c-1.163,5.569-8.554,10.142-10.32,10.459
				c-1.907,0.343-3.019,0.688-3.986,0.688c-0.522,0-1.002-0.101-1.541-0.355c-1.14,3.215-2.229,8.747-3.905,18.69
				c-0.513,3.32,2.523,5.66,2.236,7.295c-0.488,2.769-12.189,5.171-18.747,5.171c-0.207,0-0.408-0.002-0.604-0.007
				c-6.392-0.158,1.775-5.624,2.943-9.976c2.215-8.263,4.284-19.745,4.094-20.108c-0.261-0.501-4.623-2.277-4.475-3.35
				c0.733-5.322,10.313-11.497,15.618-11.497c1.453,0,2.585,0.463,3.128,1.532c0.295,0.58-0.494,2.368,0.176,2.368
				c0.385,0,1.251-0.59,3.079-2.337C141.411,67.237,143.966,66.185,145.955,66.185 M145.955,63.685
				c-2.895,0-5.961,1.502-9.118,4.467c-0.775-0.994-2.221-2.083-4.837-2.083c-6.1,0-17.125,6.614-18.095,13.656
				c-0.331,2.386,2.015,3.686,4.283,4.942c0.01,0.005,0.02,0.011,0.03,0.017c-0.492,3.218-2.112,11.631-3.87,18.192
				c-0.3,1.117-1.596,2.757-2.638,4.076c-1.833,2.319-3.564,4.509-2.489,6.801c1.013,2.159,3.665,2.224,4.536,2.246
				c0.216,0.005,0.438,0.008,0.666,0.008c3.484,0,8.293-0.636,12.252-1.621c5.762-1.433,8.524-3.165,8.956-5.616
				c0.275-1.567-0.487-2.91-1.16-4.094c-0.635-1.118-1.234-2.174-1.068-3.254c1.226-7.271,2.225-12.722,3.173-16.219
				c0.817-0.023,1.598-0.188,2.568-0.393c0.479-0.101,1.025-0.217,1.664-0.332c2.517-0.452,10.897-5.573,12.325-12.408
				c0.404-1.93-0.159-4.072-1.506-5.729C150.236,64.628,148.221,63.685,145.955,63.685L145.955,63.685z"/>
		</g>
		<g>
			<path fill="#CCC5A3" d="M100.079,73.777c3.546,0,6.441,0.967,8.681,2.898c3.085,2.656,4.429,6.709,4.029,12.16
				c-0.236,3.205-1.074,6.442-2.521,9.721c-1.445,3.275-3.398,6.349-5.863,9.22c-2.585,3.052-5.495,5.56-8.732,7.527
				c-3.237,1.965-6.625,3.267-10.158,3.903c-1.398,0.251-2.723,0.377-3.974,0.377c-3.6,0-6.593-1.04-8.98-3.119
				c-3.22-2.802-4.634-6.85-4.247-12.143c0.242-3.308,1.077-6.507,2.51-9.599c1.435-3.092,3.479-6.13,6.135-9.114
				c2.687-3.041,5.677-5.559,8.968-7.548c3.295-1.989,6.585-3.281,9.879-3.874C97.321,73.913,98.746,73.777,100.079,73.777
				 M87.473,110.357c0.179,0,0.371-0.022,0.575-0.068c4.729-1.071,7.12-10.722,8.313-16.009c0.75-3.322,1.56-10.452-2.246-10.452
				c-0.173,0-0.355,0.015-0.548,0.045c-4.052,0.645-5.541,4.614-7.662,13.787C85.129,101.017,83.792,110.357,87.473,110.357
				 M100.079,71.277c-1.475,0-3.063,0.151-4.718,0.449c-3.574,0.643-7.184,2.054-10.728,4.194c-3.493,2.111-6.706,4.813-9.549,8.033
				c-2.798,3.144-4.997,6.416-6.529,9.717c-1.552,3.349-2.472,6.871-2.735,10.468c-0.446,6.098,1.27,10.879,5.099,14.211
				c2.844,2.477,6.417,3.733,10.621,3.733c1.394,0,2.879-0.14,4.417-0.417c3.822-0.688,7.527-2.111,11.013-4.227
				c3.455-2.1,6.597-4.808,9.343-8.049c2.6-3.028,4.704-6.338,6.243-9.826c1.553-3.518,2.471-7.067,2.728-10.546
				c0.458-6.259-1.187-11.049-4.891-14.238C107.695,72.456,104.225,71.277,100.079,71.277L100.079,71.277z M87.806,107.749
				c-0.485-1.385-0.387-5.535,0.534-9.525c2.046-8.848,3.306-11.513,5.619-11.881c0.046-0.007,0.083-0.011,0.112-0.013
				c0.496,0.725,0.675,3.749-0.149,7.399C91.501,104.464,89.155,107.172,87.806,107.749L87.806,107.749z"/>
		</g>
		<g>
			<path fill="#CCC5A3" d="M51.708,63.846c1.977,0,3.969,0.296,5.857,1.129c6.65,2.508,13.709,8.521,9.774,27.354
				c-4.362,20.884-19.397,33.335-33.265,36.393c-1.627,0.359-27.205,4.927-27.205,4.927c-0.513,0.094-0.962,0.14-1.356,0.14
				c-0.813,0-1.39-0.195-1.803-0.56c-2.64-1.169-0.75-6.741,3.612-9.488l9.114-43.172c-3.611-0.847-3.864-10.075,5.06-11.681
				l25.123-4.52C48.249,64.075,49.972,63.846,51.708,63.846 M28.677,119.999c4.649-0.23,15.099-8.607,18.181-23.934
				c2.259-11.234,0.485-17.801-2.453-20.793c-1.114-0.792-2.243-1.163-3.322-1.162c-2.226,0-4.235,1.578-5.437,4.275l-8.071,38.633
				C27.211,118.758,27.581,119.761,28.677,119.999 M51.708,61.346c-1.647,0-3.405,0.179-5.532,0.562l-25.123,4.52
				c-6.826,1.228-9.363,6.099-9.463,9.896c-0.06,2.284,0.708,4.252,2.031,5.478l-8.54,40.45c-3.203,2.402-5.292,6.149-5.066,9.254
				c0.125,1.715,0.971,3.094,2.34,3.842c0.846,0.625,1.906,0.942,3.157,0.942c0.553,0,1.145-0.06,1.809-0.181
				c1.034-0.185,25.635-4.579,27.292-4.944c13.137-2.897,30.232-14.672,35.173-38.323c3.325-15.917-0.469-26.071-11.276-30.18
				C56.48,61.776,54.255,61.346,51.708,61.346L51.708,61.346z M38.034,79.176c0.778-1.612,1.906-2.566,3.049-2.566
				c0.533,0,1.1,0.192,1.687,0.573c1.196,1.339,4.117,6.053,1.637,18.39c-2.479,12.326-10.106,19.737-14.292,21.514L38.034,79.176
				L38.034,79.176z"/>
		</g>
	</g>
	<g>
		<g>
			<path fill="#CCC5A3" d="M183.03,2.5c0.416,0,0.696,0.055,0.796,0.169c0.624,0.716-0.776,8.893-0.776,8.893l-1.842,8.82
				c2.342-1.486,5.499-2.468,8.482-2.468c4.076,0,7.825,1.834,8.714,6.718c1.298,7.135-4.327,24.458-20.485,26.993
				c-1.491,0.233-2.854,0.357-4.082,0.357c-2.185,0-3.948-0.392-5.272-1.252c-2.071-1.346-2.985-3.655-2.741-6.927
				c0.032-0.467,0.106-1.04,0.223-1.727c0.111-0.688,0.263-1.476,0.452-2.361l1.465-6.732c0.806-3.852,1.477-7.306,2.013-10.36
				c0.537-3.054,0.724-5.138,0.938-6.353c0.777-4.402-2.13-4.872-0.43-8.408C171.963,4.788,180.334,2.5,183.03,2.5 M179.521,43.637
				c0.139,0,0.286-0.017,0.445-0.053c3.336-0.755,4.87-6.844,5.712-10.574c0.529-2.342,1.1-7.372-1.583-7.372
				c-0.122,0-0.251,0.011-0.387,0.032c-2.859,0.455-3.911,3.255-5.404,9.726C177.759,37.751,176.959,43.637,179.521,43.637
				 M183.03,0L183.03,0c-2.966,0-12.659,2.331-14.799,6.778c-1.361,2.832-0.659,4.682-0.146,6.032
				c0.356,0.941,0.615,1.621,0.367,3.025c-0.093,0.527-0.175,1.146-0.277,1.929c-0.152,1.165-0.343,2.614-0.661,4.426
				c-0.53,3.019-1.202,6.478-1.998,10.281l-1.46,6.713c-0.201,0.94-0.361,1.776-0.478,2.493c-0.129,0.759-0.211,1.403-0.249,1.954
				c-0.393,5.262,1.89,7.906,3.873,9.195c1.714,1.113,3.885,1.655,6.635,1.655c1.342,0,2.804-0.127,4.469-0.388
				c6.979-1.095,12.908-4.829,17.148-10.8c4.86-6.843,6.212-14.703,5.41-19.11c-0.999-5.491-5.176-8.771-11.174-8.771
				c-1.647,0-3.377,0.261-5.046,0.741l0.853-4.083l0.009-0.044l0.008-0.045c1.601-9.347,0.888-10.165,0.197-10.957
				C184.819,0,183.473,0,183.03,0L183.03,0z M180.252,40.538c-0.051-1.136,0.099-2.9,0.487-4.579
				c1.122-4.861,1.88-6.965,2.832-7.608c0.111,0.836,0.063,2.365-0.332,4.107C182.099,37.512,181.016,39.647,180.252,40.538
				L180.252,40.538z"/>
		</g>
		<g>
			<path fill="#CCC5A3" d="M160.353,23.057c2.022,0,3.326,0.901,2.705,3.1c-0.127,0.452-3.713,18.251-4.431,21.206
				c-0.857,3.538,2.919,3.295,0.066,6.417c-1.327,1.454-5.931,2.188-6.753,2.337c-0.082,0.015-0.189,0.022-0.316,0.022
				c-1.199,0-4.153-0.693-4.231-2.749c-1.778,2.043-7.9,4.967-9.836,5.314c-0.516,0.093-1,0.14-1.451,0.14
				c-1.455,0-2.577-0.481-3.369-1.444c-1.036-1.265-1.433-3.273-1.188-6.033c0.177-1.998,2.978-14.59,3.176-16.012
				c0.295-2.102-1.33-3.427-1.152-4.275c0.461-2.209,6.021-5.126,9.673-5.126c2.062,0,3.515,0.929,3.102,3.438
				c-0.264,1.598-4.483,18.535-2.89,20.092c0.322,0.314,0.737,0.467,1.192,0.467c1.39,0,3.155-1.427,3.829-4.047
				c0.645-2.511,2.354-11.23,2.57-12.304c0.92-4.592-1.618-5.177,0.805-7.177C154.273,24.426,157.859,23.057,160.353,23.057
				 M160.353,20.557L160.353,20.557c-3.131,0-7.28,1.619-10.091,3.938c-0.883,0.729-1.403,1.44-1.688,2.134
				c-0.218-0.575-0.513-1.022-0.798-1.359c-0.703-0.828-2.061-1.815-4.531-1.815c-4.2,0-11.301,3.188-12.12,7.115
				c-0.255,1.216,0.267,2.211,0.646,2.938c0.337,0.643,0.539,1.059,0.478,1.501c-0.066,0.474-0.608,3.054-1.086,5.33
				c-1.162,5.53-1.992,9.543-2.104,10.809c-0.307,3.467,0.264,6.031,1.745,7.838c0.887,1.079,2.524,2.36,5.303,2.36
				c0.598,0,1.234-0.061,1.894-0.179c1.729-0.311,5.883-2.113,8.829-4.095c1.389,1.066,3.275,1.568,4.796,1.568
				c0.278,0,0.527-0.021,0.759-0.062l0.162-0.029c4.266-0.747,6.731-1.698,7.995-3.083c2.543-2.784,1.831-4.776,0.799-6.358
				c-0.371-0.568-0.41-0.628-0.282-1.155c0.473-1.945,2.098-9.876,3.284-15.666c0.538-2.626,1.048-5.109,1.136-5.496
				c0.585-2.119-0.019-3.528-0.631-4.338C164.191,21.587,162.881,20.557,160.353,20.557L160.353,20.557z M145.649,46.347
				c0.209-2.214,0.915-6.414,2.664-14.228c0.153-0.684,0.267-1.188,0.347-1.563c0.118,0.65,0.165,1.411-0.063,2.553l-0.166,0.833
				c-0.454,2.285-1.835,9.238-2.375,11.34C145.947,45.705,145.805,46.058,145.649,46.347L145.649,46.347z"/>
		</g>
		<g>
			<path fill="#CCC5A3" d="M129.84,12.294c1.011,0,1.904,0.286,2.475,1.064c0.3,0.408,0.462,0.95,0.406,1.688
				c-0.028,0.371-0.215,1.368-0.556,2.989c-0.221,1.051-0.395,1.904-0.522,2.555l-3.854,18.504c-0.619,2.889-1.14,5.488-1.566,7.805
				c-0.425,2.314-0.658,3.729-0.694,4.242c-0.05,0.638,0.018,1.041,0.204,1.211c0.18,0.166,0.876,2.276,1.451,2.276
				c0.014,0,0.027-0.002,0.041-0.004l0,0c0.089,0,2.689,4.993-8.46,7.524c-1.883,0.427-3.369,0.596-4.531,0.596
				c-3.003,0-3.845-1.126-3.79-1.836c0.049-0.638,2.018-2.715,2.76-5.665c0.741-2.949,6.851-31.699,6.657-32.062
				c-1.314-2.436-3.459-6.148,6.035-9.947C127.122,12.744,128.573,12.294,129.84,12.294 M129.841,9.794L129.841,9.794
				c-1.399,0-2.994,0.367-4.876,1.121c-4.773,1.909-7.446,4.038-8.409,6.698c-0.886,2.446-0.026,4.581,0.725,6.043
				c-0.751,4.352-5.723,27.873-6.503,30.979c-0.376,1.496-1.194,2.776-1.792,3.711c-0.563,0.881-0.97,1.518-1.036,2.372
				c-0.075,0.989,0.281,1.963,1.005,2.743c1.097,1.184,2.872,1.784,5.278,1.784c1.449,0,3.159-0.222,5.084-0.657
				c9.957-2.261,10.976-6.778,10.696-9.271c-0.149-1.326-0.658-2.298-1.428-2.802c-0.104-0.21-0.22-0.467-0.288-0.619
				c-0.094-0.211-0.18-0.404-0.275-0.585c0.02-0.235,0.123-1.041,0.659-3.961c0.428-2.32,0.95-4.923,1.552-7.732l3.857-18.518
				c0.132-0.67,0.304-1.513,0.521-2.551c0.481-2.29,0.574-2.945,0.603-3.313c0.098-1.298-0.2-2.427-0.885-3.358
				C133.635,10.93,132.289,9.794,129.841,9.794L129.841,9.794z"/>
		</g>
		<g>
			<path fill="#CCC5A3" d="M105.541,16.843c5.181,0,7.32,2.635,8.183,3.704c0.045,0.055,0.079,0.135,0.112,0.228
				c1.388,2.018,0.45,7.313-0.99,9.842c-0.589,1.035-1.675,1.766-2.65,2.029c-0.513,0.208-1.169,0.374-1.751,0.374
				c-0.688,0-1.274-0.23-1.405-0.893c-0.308-1.566-0.344-2.629-0.702-4.829c-0.433-1.735-1.688-2.686-3.515-2.686
				c-1.085,0-2.373,0.336-3.809,1.043c-3.742,1.843-8.104,8.038-9.834,15.535c-2.669,11.562-1.927,13.876-0.471,16.186
				c0.032,0.053,0.067,0.096,0.101,0.146c0.715,0.756,1.6,1.071,2.578,1.071c3.744,0,8.836-4.615,10.834-6.742
				c1.311-1.394,2.663-2.108,3.79-2.251c0.292-0.067,0.573-0.1,0.838-0.1c1.682,0,2.75,1.305,2.317,3.373
				c-0.716,3.433-7.958,12.928-18.688,14.858c-1.509,0.271-2.898,0.402-4.173,0.402c-3.673,0-6.393-1.087-8.273-3.035
				c-4.061-3.422-5.361-10.092-3.544-18.788c4.897-23.456,24.151-28.504,27.762-29.153
				C103.465,16.938,104.557,16.843,105.541,16.843 M105.541,14.343L105.541,14.343c-1.175,0-2.431,0.119-3.733,0.353
				c-2.475,0.445-24.337,5.1-29.766,31.103c-1.994,9.541-0.473,17.036,4.282,21.127c2.426,2.46,5.784,3.707,9.982,3.707
				c1.433,0,2.986-0.148,4.616-0.442c11.555-2.079,19.731-12.194,20.693-16.809c0.374-1.783,0.039-3.432-0.943-4.642
				c-0.912-1.123-2.269-1.742-3.821-1.742c-0.417,0-0.847,0.046-1.278,0.137c-1.761,0.261-3.593,1.322-5.172,3.001
				c-2.711,2.887-6.791,5.955-9.013,5.955c-0.319,0-0.502-0.068-0.647-0.183c-0.883-1.421-1.654-3.199,0.875-14.157
				c1.576-6.828,5.561-12.406,8.502-13.855c1.319-0.65,2.199-0.786,2.704-0.786c0.721,0,0.93,0.218,1.066,0.703
				c0.147,0.918,0.238,1.642,0.318,2.282c0.102,0.815,0.198,1.585,0.38,2.512c0.35,1.77,1.864,2.911,3.858,2.911
				c1.051,0,2.005-0.293,2.552-0.502c1.677-0.496,3.173-1.67,4.023-3.165c1.5-2.634,3.067-8.86,1.045-12.234
				c-0.092-0.201-0.221-0.431-0.408-0.659C114.742,17.83,111.925,14.343,105.541,14.343L105.541,14.343z"/>
		</g>
	</g>
</g>
<g id="Contour_1_">
	<g>
		<g>
			<path fill="#4D2600" d="M344.812,29.506L344.812,29.506c2.032,0,3.696,0.425,4.947,1.263c1.83,1.225,2.619,3.201,2.411,6.045
				c-0.325,4.46-2.826,8.678-7.436,12.536c-4.69,3.928-10.587,6.552-17.526,7.8l-1.156,0.209l-0.822,0.149v0.835
				c0.001,3.197,0.656,5.425,2.004,6.811c1.03,1.057,2.459,1.594,4.248,1.594c0.615,0,1.284-0.064,1.991-0.191
				c1.123-0.203,2.24-0.583,3.321-1.132c1.043-0.532,2.313-1.371,3.78-2.5c0.785-0.614,1.764-1.455,2.994-2.572
				c1.428-1.302,1.856-1.467,1.87-1.474c0.068-0.013,0.136-0.019,0.2-0.019c0.3,0,0.598,0.138,0.912,0.422
				c0.386,0.349,0.543,0.71,0.512,1.168c-0.036,0.49-0.254,1.047-0.646,1.653c-0.44,0.676-1.078,1.384-1.902,2.107
				c-2.867,2.552-5.842,4.647-8.842,6.229c-2.981,1.571-6.021,2.644-9.037,3.186c-1.381,0.249-2.685,0.374-3.876,0.374
				c-2.94,0-5.335-0.771-7.115-2.291c-2.519-2.154-3.577-5.478-3.236-10.157c0.273-3.747,1.323-7.559,3.12-11.328
				c1.803-3.78,4.221-7.226,7.188-10.242c2.475-2.523,5.412-4.719,8.731-6.527c3.314-1.811,6.632-3.022,9.859-3.604
				C342.571,29.622,343.751,29.506,344.812,29.506 M328.412,52.77c0.309,0,0.646-0.032,1.001-0.097
				c2.712-0.488,5.298-2.115,7.688-4.836c2.383-2.718,3.698-5.582,3.91-8.51c0.121-1.603-0.17-2.756-0.889-3.526
				c-0.567-0.608-1.354-0.917-2.336-0.917c-0.313,0-0.653,0.033-1.011,0.097c-1.166,0.21-2.293,0.735-3.354,1.563
				c-1.001,0.785-2.04,1.934-3.095,3.422c-1.095,1.582-2.07,3.453-2.897,5.562c-0.85,2.168-1.313,3.906-1.417,5.314
				c-0.06,0.803,0.413,1.458,1.269,1.754C327.617,52.711,327.998,52.77,328.412,52.77 M344.812,28.506
				c-1.125,0-2.353,0.12-3.683,0.359c-3.347,0.603-6.735,1.839-10.162,3.71c-3.429,1.868-6.417,4.106-8.966,6.705
				c-3.06,3.11-5.518,6.614-7.376,10.512c-1.858,3.899-2.931,7.794-3.215,11.686c-0.362,4.975,0.832,8.637,3.583,10.99
				c1.977,1.688,4.564,2.531,7.766,2.531c1.257,0,2.607-0.13,4.053-0.39c3.134-0.563,6.244-1.66,9.327-3.285
				c3.081-1.625,6.095-3.746,9.04-6.367c0.896-0.788,1.586-1.558,2.075-2.31c0.488-0.754,0.757-1.463,0.806-2.125
				c0.053-0.766-0.225-1.428-0.838-1.982c-0.502-0.454-1.029-0.681-1.583-0.681c-0.125,0-0.251,0.011-0.378,0.034
				c-0.399,0.071-1.186,0.643-2.366,1.719c-1.181,1.072-2.158,1.915-2.937,2.524c-1.419,1.091-2.625,1.89-3.618,2.396
				c-0.995,0.505-2.01,0.852-3.045,1.038c-0.65,0.117-1.255,0.176-1.813,0.176c-1.518,0-2.694-0.432-3.532-1.292
				c-1.146-1.179-1.719-3.218-1.72-6.112l1.156-0.209c7.146-1.285,13.146-3.96,17.99-8.018c4.849-4.059,7.444-8.467,7.791-13.23
				c0.234-3.203-0.716-5.52-2.853-6.948C348.891,28.983,347.056,28.506,344.812,28.506L344.812,28.506z M328.412,51.77
				c-0.305,0-0.574-0.04-0.807-0.12c-0.423-0.146-0.621-0.393-0.596-0.734c0.096-1.299,0.546-2.971,1.351-5.023
				c0.805-2.05,1.736-3.837,2.789-5.357c0.996-1.406,1.959-2.475,2.89-3.204c0.935-0.729,1.904-1.184,2.913-1.365
				c0.3-0.054,0.578-0.081,0.834-0.081c0.697,0,1.232,0.2,1.605,0.6c0.512,0.549,0.72,1.471,0.622,2.769
				c-0.197,2.725-1.421,5.366-3.665,7.926c-2.244,2.556-4.615,4.062-7.112,4.511C328.937,51.742,328.662,51.77,328.412,51.77
				L328.412,51.77z"/>
		</g>
		<g>
			<g>
				<path fill="#4D2600" d="M304.069,17.562c1.427,0,3.201,0.934,4.126,2.173c0.576,0.771,0.753,1.547,0.528,2.307
					c-1.089,3.673-8.744,6.341-13.923,7.643c2.25-2.494,5.646-6.688,7.932-11.477C302.937,17.779,303.387,17.562,304.069,17.562
					 M304.069,16.562c-0.992,0-1.833,0.366-2.239,1.215c-3.567,7.475-10.032,13.589-10.032,13.589s16.062-2.89,17.885-9.04
					C310.585,19.279,306.773,16.562,304.069,16.562L304.069,16.562z"/>
			</g>
			<g>
				<path fill="#4D2600" d="M303.724,36.913c2.041,0,3.717,0.428,4.98,1.273c1.829,1.224,2.615,3.211,2.405,6.077
					c-0.327,4.5-2.834,8.742-7.45,12.609c-4.819,4.036-10.725,6.705-17.554,7.933l-1.155,0.208l-0.772,0.139l-0.048,0.783
					c-0.254,4.1,0.547,5.231,1.897,6.606l0.129,0.132c0.961,0.986,2.325,1.486,4.055,1.486c0.664,0,1.409-0.073,2.213-0.217
					c1.122-0.202,2.239-0.583,3.321-1.131c1.047-0.534,2.317-1.374,3.779-2.499c0.782-0.61,1.762-1.452,2.995-2.574
					c1.427-1.301,1.861-1.468,1.873-1.475c0.066-0.012,0.132-0.019,0.197-0.019c0.298,0,0.597,0.139,0.912,0.422
					c0.388,0.351,0.546,0.712,0.514,1.166c-0.038,0.495-0.256,1.052-0.647,1.656c-0.436,0.672-1.074,1.38-1.901,2.107
					c-2.87,2.553-5.845,4.649-8.842,6.229c-2.979,1.57-6.019,2.642-9.037,3.186c-1.38,0.248-2.684,0.374-3.875,0.374
					c-2.942,0-5.337-0.771-7.118-2.292c-2.519-2.155-3.577-5.478-3.234-10.158c0.272-3.745,1.322-7.554,3.119-11.324
					c1.799-3.778,4.216-7.223,7.185-10.241c2.464-2.511,5.401-4.705,8.729-6.521c3.302-1.803,6.62-3.013,9.861-3.596
					C301.504,37.027,302.671,36.913,303.724,36.913L303.724,36.913 M287.365,60.155c0.308,0,0.643-0.032,0.998-0.096
					c2.714-0.489,5.301-2.116,7.69-4.837c2.381-2.716,3.697-5.58,3.91-8.511c0.12-1.607-0.171-2.76-0.889-3.526
					c-0.569-0.608-1.354-0.917-2.334-0.917c-0.314,0-0.654,0.033-1.009,0.097c-1.17,0.21-2.298,0.735-3.353,1.562
					c-1.003,0.785-2.043,1.933-3.097,3.421c-1.102,1.591-2.077,3.463-2.896,5.562c-0.851,2.162-1.314,3.901-1.417,5.309
					c-0.064,0.803,0.407,1.46,1.265,1.76C286.568,60.097,286.95,60.155,287.365,60.155 M303.724,35.913
					c-1.114,0-2.33,0.118-3.646,0.355c-3.349,0.603-6.733,1.83-10.163,3.703c-3.427,1.87-6.414,4.101-8.964,6.698
					c-3.06,3.11-5.518,6.613-7.374,10.512c-1.859,3.9-2.931,7.793-3.214,11.682c-0.364,4.977,0.831,8.637,3.582,10.99
					c1.976,1.688,4.565,2.532,7.768,2.532c1.256,0,2.606-0.13,4.051-0.39c3.135-0.564,6.244-1.66,9.326-3.285
					c3.081-1.625,6.094-3.746,9.04-6.367c0.895-0.787,1.587-1.558,2.075-2.311s0.755-1.463,0.806-2.123
					c0.055-0.767-0.226-1.429-0.84-1.984c-0.504-0.454-1.03-0.681-1.583-0.681c-0.124,0-0.248,0.012-0.374,0.034
					c-0.399,0.072-1.189,0.644-2.37,1.72c-1.179,1.072-2.155,1.915-2.937,2.524c-1.417,1.091-2.622,1.889-3.618,2.396
					c-0.993,0.504-2.008,0.852-3.044,1.038c-0.735,0.132-1.415,0.202-2.036,0.202c-1.422,0-2.541-0.365-3.338-1.184
					c-1.148-1.177-2-1.868-1.745-5.979l1.155-0.208c7.149-1.286,13.174-4.094,18.019-8.15c4.849-4.062,7.459-8.537,7.806-13.303
					c0.234-3.199-0.71-5.551-2.847-6.98C307.828,36.397,305.983,35.913,303.724,35.913L303.724,35.913z M287.365,59.155
					c-0.306,0-0.575-0.04-0.808-0.12c-0.422-0.147-0.621-0.393-0.594-0.735c0.095-1.299,0.543-2.97,1.351-5.022
					c0.801-2.05,1.734-3.837,2.788-5.358c0.995-1.406,1.959-2.475,2.891-3.203c0.931-0.729,1.899-1.184,2.913-1.365
					c0.299-0.054,0.577-0.081,0.833-0.081c0.695,0,1.23,0.2,1.604,0.6c0.514,0.548,0.719,1.472,0.622,2.769
					c-0.198,2.725-1.421,5.366-3.665,7.926c-2.245,2.557-4.616,4.062-7.115,4.512C287.888,59.129,287.614,59.155,287.365,59.155
					L287.365,59.155z"/>
			</g>
		</g>
		<g>
			<path fill="#4D2600" d="M246.351,26.367L246.351,26.367c1.06,0,1.837,0.219,2.188,0.616c0.086,0.097,0.349,0.393,0.251,1.195
				c-0.097,0.709-2.714,13.114-4.45,21.28l-0.436,2.051l1.868-0.952c5.247-2.673,9.552-4.028,12.795-4.028
				c2.494,0,4.312,0.78,5.554,2.385c4.156,5.367,0.837,18.204-0.581,23.687c-0.284,1.101-0.49,1.896-0.567,2.363
				c-0.483,2.947,0.207,4.265,0.711,5.227c0.418,0.797,0.591,1.127-0.144,2.536c-0.739,1.42-8.932,4.894-14.508,4.894
				c-1.43,0-2.464-0.27-2.837-0.739c-0.072-0.091-0.292-0.367-0.119-1.11c0.396-1.703,0.907-2.356,1.498-3.113
				c0.836-1.07,1.783-2.283,2.409-6.004c0.329-1.967,0.691-3.97,1.042-5.907c0.822-4.551,1.533-8.481,1.635-10.793
				c0.096-2.177-0.272-3.669-1.127-4.562c-0.524-0.548-1.214-0.838-1.996-0.838c-2.234,0-4.858,2.413-6.007,4.647
				c-1.666,3.234-6.443,23.922-4.347,28.527c-1.133,1.287-8.591,4.109-13.621,4.109c-1.729,0-2.869-0.353-3.128-0.967
				c-0.22-0.519-0.054-0.835,0.815-2.078c0.837-1.198,1.984-2.84,2.943-5.666c1.802-5.31,8.091-37.394,8.259-39.479
				c0.149-1.892-0.061-4.404-0.574-6.895c-0.861-4.167,0.003-5.332,6.606-8.902C241.833,27.121,244.396,26.367,246.351,26.367
				 M246.35,25.367c-2.212,0-4.923,0.837-6.341,1.604c-6.735,3.642-8.11,5.146-7.11,9.984c0.508,2.46,0.696,4.842,0.557,6.614
				c-0.163,2.021-6.399,33.905-8.209,39.236c-1.896,5.589-4.609,6.377-3.733,8.454c0.478,1.133,2.029,1.578,4.05,1.578
				c5.854,0,15.641-3.739,14.624-5.349c-2.08-3.296,2.42-24.311,4.232-27.83c1.038-2.019,3.375-4.105,5.118-4.105
				c1.297,0,2.266,1.156,2.124,4.355c-0.143,3.229-1.58,10.111-2.664,16.579c-1.045,6.214-2.884,4.712-3.895,9.056
				c-0.522,2.242,1.259,3.076,3.93,3.076c5.365,0,14.319-3.365,15.395-5.432c1.925-3.693-1.338-2.754-0.467-8.063
				c0.547-3.33,9.503-29.597-5.393-29.597c-3.205,0-7.515,1.216-13.249,4.138c0,0,4.362-20.523,4.464-21.364
				C250.05,26.099,248.418,25.367,246.35,25.367L246.35,25.367z"/>
		</g>
		<g>
			<path fill="#4D2600" d="M216.823,41.456c0.553,0.887,0.201,5.213-0.793,9.518l-0.228,0.987l0.99,0.215l7.517,1.632
				c-0.089,0.879-0.539,2.413-0.903,2.767l-0.026,0.007l-0.095,0.05c-9.118,4.769-9.255,4.952-9.427,5.186
				c-0.973,1.314-3.207,13.011-4.112,17.931c-0.083,0.354-0.154,0.727-0.219,1.143c-0.054,0.363-0.102,0.808-0.151,1.404
				c-0.135,1.707,0.27,2.987,1.203,3.808c0.214,0.187,0.529,0.342,1.053,0.599c1.132,0.557,3.488,1.714,3.642,2.991
				c0.088,0.729-0.644,1.508-1.271,2.033c-2.319,1.936-7.168,3.374-9.68,3.826c-0.798,0.144-1.539,0.217-2.205,0.217
				c-1.507,0-2.634-0.354-3.444-1.083c-1.155-1.038-1.638-2.879-1.433-5.469c0.063-0.765,0.329-2.568,1.237-6.816l0.014-0.063
				l0.006-0.064l0.001-0.015l3.873-17.24l0.191-0.851l-0.817-0.305l-4.707-1.756c0.131-0.573,0.403-1.479,0.663-2.23l0.017-0.047
				l0.012-0.048c0.169-0.708,1.325-1.47,2.925-2.523c1.536-1.013,3.448-2.272,5.63-4.198c2.109-1.862,3.186-5.408,3.972-7.996
				c0.297-0.979,0.66-2.175,0.909-2.588L216.823,41.456 M216.927,40.422l-6.195,1.114c-1.222,0.383-1.909,7.947-5.109,10.772
				c-4.779,4.22-8.395,5.27-8.865,7.239c0,0-1.133,3.268-0.699,3.268c0.006,0,0.012-0.001,0.018-0.002l5.32,1.984l-3.889,17.309
				L197.5,82.19c-0.747,3.491-1.163,5.807-1.257,6.943c-0.231,2.936,0.357,5.033,1.762,6.295c0.993,0.893,2.363,1.339,4.112,1.339
				c0.729,0,1.522-0.078,2.382-0.232c2.338-0.421,7.515-1.849,10.144-4.043c4.912-4.103-2.719-6.544-3.405-7.144
				c-0.684-0.601-0.974-1.594-0.864-2.976c0.044-0.528,0.09-0.974,0.144-1.337c0.057-0.367,0.123-0.72,0.203-1.061
				c0,0,3.003-16.294,3.942-17.564c0.172-0.232,9.087-4.895,9.087-4.895c1.135-0.313,1.927-4.555,1.406-4.555
				c-0.006,0-0.012,0.001-0.019,0.002l-8.132-1.766C217.005,51.198,219.465,40.552,216.927,40.422L216.927,40.422z"/>
		</g>
		<g>
			<path fill="#4D2600" d="M179.116,59.375c3.285,0,5.986,0.893,8.03,2.654c2.857,2.462,4.062,6.169,3.683,11.332
				c-0.225,3.076-1.044,6.235-2.436,9.388c-1.4,3.174-3.321,6.193-5.713,8.979c-2.5,2.954-5.355,5.416-8.486,7.318
				c-3.122,1.894-6.425,3.164-9.819,3.773c-1.334,0.241-2.613,0.362-3.8,0.362c-3.331,0-6.13-0.966-8.32-2.873
				c-2.995-2.607-4.272-6.309-3.907-11.317c0.234-3.176,1.049-6.289,2.422-9.25c1.387-2.991,3.396-5.975,5.976-8.872
				c2.609-2.955,5.548-5.429,8.735-7.355c3.177-1.918,6.387-3.179,9.54-3.747C176.472,59.508,177.85,59.375,179.116,59.375
				 M166.512,95.956c0.255,0,0.523-0.031,0.795-0.093c4.939-1.118,7.439-9.545,9.066-16.762c0.285-1.262,1.597-7.694-0.583-10.422
				c-0.654-0.818-1.566-1.25-2.638-1.25h0c-0.226,0-0.463,0.019-0.704,0.057c-4.954,0.787-6.508,6.022-8.479,14.55
				c-0.091,0.394-2.2,9.679,0.302,12.825C164.842,95.577,165.617,95.956,166.512,95.956 M179.116,58.375
				c-1.332,0-2.756,0.136-4.272,0.409c-3.295,0.594-6.585,1.886-9.88,3.875c-3.292,1.989-6.281,4.507-8.968,7.549
				c-2.657,2.984-4.7,6.021-6.134,9.113s-2.269,6.291-2.512,9.598c-0.387,5.293,1.028,9.342,4.247,12.145
				c2.387,2.078,5.379,3.118,8.977,3.118c1.252,0,2.578-0.126,3.977-0.378c3.534-0.635,6.922-1.938,10.16-3.902
				c3.236-1.967,6.146-4.475,8.73-7.527c2.466-2.871,4.42-5.945,5.865-9.221c1.446-3.277,2.284-6.516,2.519-9.719
				c0.4-5.451-0.942-9.504-4.027-12.162C185.558,59.341,182.664,58.375,179.116,58.375L179.116,58.375z M166.512,94.956
				c-3.682,0-2.344-9.34-1.568-12.696c2.12-9.173,3.609-13.144,7.661-13.787c0.192-0.03,0.375-0.045,0.547-0.045
				c3.805,0,2.997,7.129,2.246,10.452c-1.191,5.286-3.582,14.938-8.312,16.008C166.883,94.934,166.691,94.956,166.512,94.956
				L166.512,94.956z"/>
		</g>
		<g>
			<path fill="#4D2600" d="M144.955,66.185c1.528,0,2.451,0.741,2.956,1.362c0.668,0.823,0.981,1.925,0.796,2.807
				c-1.059,5.073-7.959,9.399-9.519,9.679c-0.678,0.122-1.257,0.244-1.766,0.352c-0.882,0.186-1.519,0.32-2.043,0.32
				c-0.396,0-0.729-0.078-1.113-0.259l-1-0.473l-0.37,1.043c-1.229,3.466-2.378,9.539-3.951,18.872
				c-0.353,2.284,0.708,4.152,1.483,5.517c0.381,0.671,0.813,1.433,0.756,1.757c-0.06,0.338-1.355,1.584-6.354,2.828
				c-3.707,0.922-8.184,1.518-11.408,1.518c-0.198,0-0.392-0.002-0.579-0.007c-0.99-0.025-1.345-0.186-1.445-0.246
				c0.017-0.551,1.239-2.098,2.057-3.132c1.306-1.652,2.786-3.524,3.272-5.339c0.962-3.587,2.042-8.356,2.964-13.084
				c1.386-7.104,1.215-7.432,1.051-7.745c-0.221-0.424-0.65-0.677-1.859-1.348c-0.698-0.387-2.1-1.164-2.48-1.597
				c0.861-4.661,9.663-10.44,14.596-10.44c1.109,0,1.848,0.307,2.198,0.914c0.001,0.147-0.047,0.456-0.077,0.648
				c-0.106,0.68-0.216,1.382,0.235,1.91c0.236,0.276,0.573,0.429,0.948,0.429c0.671,0,1.471-0.417,3.77-2.614
				C141.246,66.822,143.567,66.185,144.955,66.185 M144.955,65.185c-1.988,0-4.544,1.052-7.573,3.947
				c-1.828,1.747-2.693,2.337-3.079,2.337c-0.67,0,0.119-1.788-0.176-2.368c-0.543-1.069-1.675-1.532-3.128-1.532
				c-5.306,0-14.885,6.175-15.618,11.497c-0.148,1.072,4.214,2.849,4.475,3.35c0.19,0.363-1.879,11.846-4.094,20.108
				c-1.168,4.352-9.335,9.817-2.943,9.976c0.196,0.005,0.397,0.007,0.604,0.007c6.557,0,18.258-2.402,18.747-5.171
				c0.287-1.635-2.749-3.975-2.236-7.295c1.676-9.943,2.766-15.476,3.905-18.69c0.539,0.255,1.019,0.355,1.541,0.355
				c0.967,0,2.08-0.344,3.986-0.688c1.767-0.317,9.157-4.89,10.32-10.459C150.147,68.353,148.405,65.185,144.955,65.185
				L144.955,65.185z"/>
		</g>
		<g>
			<path fill="#4D2600" d="M99.079,73.777c3.284,0,5.984,0.894,8.029,2.656c2.857,2.46,4.063,6.167,3.685,11.329
				c-0.227,3.08-1.048,6.239-2.439,9.391c-1.4,3.173-3.32,6.192-5.711,8.977c-2.501,2.954-5.357,5.416-8.488,7.319
				c-3.118,1.893-6.42,3.162-9.816,3.774c-1.333,0.24-2.611,0.361-3.797,0.361c-3.334,0-6.134-0.967-8.324-2.874
				c-2.994-2.605-4.272-6.307-3.906-11.315c0.232-3.175,1.046-6.288,2.419-9.251c1.388-2.991,3.398-5.975,5.977-8.873
				c2.609-2.953,5.548-5.427,8.735-7.354c3.178-1.918,6.387-3.179,9.54-3.746C96.433,73.909,97.811,73.777,99.079,73.777
				 M86.473,110.357c0.255,0,0.523-0.031,0.795-0.093c4.938-1.118,7.439-9.546,9.067-16.764c0.285-1.262,1.596-7.695-0.583-10.421
				c-0.654-0.818-1.566-1.251-2.638-1.251l0,0c-0.227,0-0.463,0.02-0.705,0.058c-4.953,0.788-6.507,6.022-8.479,14.55
				c-0.091,0.394-2.198,9.681,0.304,12.826C84.804,109.979,85.578,110.357,86.473,110.357 M99.079,72.777
				c-1.333,0-2.758,0.136-4.275,0.41c-3.294,0.593-6.584,1.885-9.879,3.874c-3.291,1.989-6.281,4.507-8.968,7.548
				c-2.656,2.984-4.7,6.022-6.135,9.114c-1.433,3.092-2.268,6.291-2.51,9.599c-0.387,5.293,1.027,9.341,4.247,12.143
				c2.387,2.079,5.38,3.119,8.98,3.119c1.251,0,2.576-0.125,3.974-0.377c3.533-0.637,6.921-1.938,10.158-3.903
				c3.237-1.968,6.147-4.476,8.732-7.527c2.465-2.871,4.418-5.944,5.863-9.22c1.447-3.278,2.285-6.516,2.521-9.721
				c0.399-5.451-0.944-9.504-4.029-12.16C105.52,73.744,102.625,72.777,99.079,72.777L99.079,72.777z M86.473,109.357
				c-3.682,0-2.344-9.34-1.569-12.696c2.121-9.173,3.61-13.143,7.662-13.787c0.192-0.03,0.375-0.045,0.548-0.045
				c3.806,0,2.996,7.13,2.246,10.452c-1.192,5.287-3.583,14.938-8.313,16.009C86.844,109.335,86.652,109.357,86.473,109.357
				L86.473,109.357z"/>
		</g>
		<g>
			<path fill="#4D2600" d="M50.708,63.846c2.078,0,3.861,0.342,5.453,1.044l0.025,0.011l0.025,0.01
				c5.82,2.195,13.1,7.3,9.148,26.213c-4.599,22.016-20.382,32.949-32.501,35.621c-1.588,0.351-26.91,4.873-27.17,4.92
				c-0.446,0.082-0.842,0.124-1.176,0.124c-0.532,0-0.905-0.101-1.14-0.309l-0.116-0.103l-0.142-0.063
				c-0.136-0.06-0.549-0.243-0.608-1.063c-0.131-1.805,1.494-4.866,4.349-6.664l0.358-0.226l0.087-0.414l9.114-43.172l0.202-0.957
				l-0.953-0.223c-0.955-0.224-1.618-1.562-1.575-3.18c0.065-2.483,1.828-5.687,6.584-6.542l25.123-4.52
				C47.713,64.007,49.273,63.846,50.708,63.846 M27.594,120.004l0.132-0.006c4.983-0.247,15.939-8.96,19.112-24.735
				c2.748-13.666-0.525-19.456-2.72-21.691l-0.062-0.063l-0.072-0.051c-1.257-0.894-2.569-1.347-3.901-1.347
				c-2.619,0-4.992,1.82-6.351,4.869l-0.043,0.098l-0.022,0.104l-8.071,38.633c-0.677,3.243,1.082,3.991,1.869,4.162L27.594,120.004
				 M50.708,62.846c-1.735,0-3.458,0.229-5.088,0.522l-25.123,4.52c-8.924,1.605-8.671,10.834-5.06,11.681L6.322,122.74
				c-4.362,2.747-6.252,8.319-3.612,9.488c0.413,0.365,0.989,0.56,1.803,0.56c0.394,0,0.843-0.046,1.356-0.14
				c0,0,25.578-4.567,27.205-4.927c13.867-3.058,28.902-15.509,33.265-36.393c3.935-18.832-3.124-24.846-9.774-27.354
				C54.677,63.143,52.684,62.846,50.708,62.846L50.708,62.846z M27.677,118.999c-1.096-0.238-1.466-1.241-1.103-2.98l8.071-38.633
				c1.202-2.698,3.211-4.275,5.437-4.275c1.079,0,2.208,0.37,3.322,1.162c2.938,2.992,4.712,9.559,2.453,20.793
				C42.775,110.392,32.326,118.769,27.677,118.999L27.677,118.999z"/>
		</g>
	</g>
	<g>
		<g>
			<path fill="#4D2600" d="M181.991,2.5c0.044,1.292-0.409,4.871-0.92,7.857l-1.842,8.82l-0.484,2.317l1.999-1.269
				c2.28-1.448,5.251-2.313,7.946-2.313c2.486,0,6.797,0.767,7.73,5.896c0.695,3.827-0.736,10.709-4.82,16.458
				c-2.567,3.614-7.226,8.175-14.836,9.368c-1.464,0.229-2.785,0.346-3.928,0.346c-2.053,0-3.599-0.356-4.728-1.091
				c-1.757-1.142-2.506-3.108-2.288-6.02c0.029-0.428,0.101-0.976,0.212-1.635c0.106-0.66,0.256-1.438,0.442-2.309l1.466-6.74
				c0.804-3.841,1.483-7.338,2.02-10.393c0.331-1.886,0.527-3.377,0.685-4.575c0.097-0.74,0.174-1.325,0.253-1.776
				c0.416-2.353-0.115-3.752-0.542-4.876c-0.425-1.12-0.681-1.796,0.029-3.272C171.59,4.793,179.337,2.522,181.991,2.5
				 M178.521,43.637c0.214,0,0.438-0.025,0.666-0.077c3.631-0.822,5.307-6.188,6.467-11.329c0.29-1.282,1.113-5.62-0.469-7.6
				c-0.519-0.649-1.241-0.993-2.09-0.993c-0.176,0-0.358,0.016-0.544,0.045c-3.681,0.586-4.806,4.353-6.222,10.487
				c-0.149,0.646-1.411,6.382,0.321,8.561C177.122,43.323,177.769,43.637,178.521,43.637 M182.03,1.5
				c-2.696,0-11.067,2.288-12.546,5.362c-1.7,3.536,1.207,4.006,0.43,8.408c-0.215,1.215-0.401,3.299-0.938,6.353
				c-0.536,3.055-1.207,6.509-2.013,10.36l-1.465,6.732c-0.189,0.886-0.341,1.674-0.452,2.361c-0.116,0.687-0.19,1.26-0.223,1.727
				c-0.244,3.271,0.67,5.581,2.741,6.927c1.324,0.86,3.088,1.252,5.272,1.252c1.229,0,2.591-0.124,4.082-0.357
				c16.158-2.535,21.783-19.858,20.485-26.993c-0.889-4.884-4.638-6.718-8.714-6.718c-2.983,0-6.141,0.981-8.482,2.468l1.842-8.82
				c0,0,1.4-8.177,0.776-8.893C182.727,1.555,182.446,1.5,182.03,1.5L182.03,1.5z M178.521,42.637c-2.562,0-1.762-5.886-1.217-8.241
				c1.493-6.471,2.545-9.271,5.404-9.726c0.136-0.021,0.265-0.032,0.387-0.032c2.683,0,2.112,5.03,1.583,7.372
				c-0.842,3.73-2.376,9.819-5.712,10.574C178.807,42.62,178.659,42.637,178.521,42.637L178.521,42.637z"/>
		</g>
		<g>
			<path fill="#4D2600" d="M159.353,23.057L159.353,23.057c0.838,0,1.458,0.185,1.702,0.507c0.249,0.329,0.159,0.9,0.04,1.322
				c-0.051,0.181-0.33,1.54-1.183,5.697c-1.114,5.438-2.799,13.658-3.257,15.544c-0.484,1.997,0.26,3.138,0.753,3.893
				c0.477,0.731,0.604,0.928-0.453,2.086c-0.308,0.337-1.51,1.206-6.015,1.995l-0.177,0.031c-0.037,0.006-0.084,0.007-0.14,0.007
				c-0.872,0-3.186-0.55-3.232-1.787l-0.095-2.523l-1.658,1.905c-1.636,1.879-7.521,4.675-9.259,4.986
				c-0.455,0.082-0.884,0.124-1.274,0.124c-1.15,0-1.999-0.354-2.596-1.078c-0.859-1.05-1.185-2.837-0.966-5.312
				c0.103-1.156,1.224-6.498,2.043-10.397c0.647-3.084,1.049-5.002,1.127-5.563c0.222-1.578-0.419-2.801-0.842-3.61
				c-0.116-0.221-0.271-0.518-0.309-0.654c0.411-1.483,5.14-4.275,8.681-4.275c0.625,0,1.455,0.101,1.863,0.581
				c0.295,0.348,0.38,0.918,0.252,1.694c-0.043,0.261-0.228,1.084-0.461,2.126c-3.233,14.441-3.247,17.764-2.14,18.846
				c0.504,0.49,1.157,0.75,1.89,0.75c1.771,0,3.987-1.647,4.798-4.798c0.563-2.196,1.91-8.977,2.417-11.529l0.165-0.827
				c0.46-2.296,0.121-3.746-0.104-4.706c-0.243-1.039-0.28-1.198,0.564-1.896C153.657,24.405,157.038,23.057,159.353,23.057
				 M159.353,22.057c-2.493,0-6.079,1.369-8.5,3.366c-2.423,2,0.115,2.585-0.805,7.177c-0.217,1.073-1.926,9.793-2.57,12.304
				c-0.674,2.62-2.439,4.047-3.829,4.047c-0.455,0-0.87-0.152-1.192-0.467c-1.594-1.557,2.626-18.494,2.89-20.092
				c0.413-2.51-1.04-3.438-3.102-3.438c-3.652,0-9.212,2.917-9.673,5.126c-0.178,0.849,1.447,2.174,1.152,4.275
				c-0.198,1.422-2.999,14.014-3.176,16.012c-0.244,2.76,0.152,4.769,1.188,6.033c0.792,0.963,1.914,1.444,3.369,1.444
				c0.451,0,0.936-0.047,1.451-0.14c1.936-0.348,8.058-3.271,9.836-5.314c0.078,2.056,3.032,2.749,4.231,2.749
				c0.127,0,0.234-0.008,0.316-0.022c0.822-0.148,5.426-0.883,6.753-2.337c2.853-3.122-0.924-2.879-0.066-6.417
				c0.718-2.955,4.304-20.754,4.431-21.206C162.679,22.958,161.375,22.057,159.353,22.057L159.353,22.057z"/>
		</g>
		<g>
			<path fill="#4D2600" d="M128.841,12.294L128.841,12.294c1.188,0,1.548,0.493,1.668,0.656c0.178,0.243,0.248,0.577,0.215,1.021
				c-0.017,0.218-0.123,0.892-0.537,2.86c-0.222,1.056-0.396,1.913-0.522,2.556l-3.854,18.498c-0.609,2.843-1.139,5.479-1.572,7.834
				c-0.584,3.184-0.685,4.009-0.708,4.345c-0.049,0.627-0.041,1.396,0.413,1.913c0.043,0.084,0.096,0.206,0.158,0.347
				c0.361,0.811,0.76,1.701,1.379,2.097c0.081,0.31,0.146,0.884-0.168,1.57c-0.461,1.009-2.084,2.893-7.77,4.184
				c-1.671,0.379-3.121,0.571-4.311,0.571c-2.011,0-2.671-0.549-2.778-0.727c0.089-0.176,0.303-0.511,0.48-0.788
				c0.686-1.072,1.722-2.693,2.237-4.742c0.364-1.451,2.054-9.254,3.688-17.04c3.185-15.169,3.114-15.301,2.879-15.74l-0.047-0.088
				c-0.625-1.156-1.334-2.468-0.846-3.814c0.582-1.609,2.742-3.171,6.42-4.642C126.706,12.587,127.908,12.294,128.841,12.294
				 M128.84,11.294c-1.267,0-2.718,0.45-3.945,0.941c-9.494,3.799-7.35,7.512-6.035,9.947c0.193,0.362-5.916,29.112-6.657,32.062
				c-0.742,2.95-2.711,5.027-2.76,5.665c-0.055,0.71,0.787,1.836,3.79,1.836c1.162,0,2.648-0.169,4.531-0.596
				c11.149-2.531,8.549-7.524,8.46-7.524l0,0c-0.014,0.002-0.027,0.004-0.041,0.004c-0.575,0-1.271-2.11-1.451-2.276
				c-0.187-0.17-0.254-0.573-0.204-1.211c0.036-0.513,0.27-1.928,0.694-4.242c0.427-2.316,0.947-4.916,1.566-7.805l3.854-18.504
				c0.128-0.65,0.302-1.504,0.522-2.555c0.341-1.621,0.527-2.618,0.556-2.989c0.056-0.738-0.106-1.28-0.406-1.688
				C130.744,11.58,129.851,11.294,128.84,11.294L128.84,11.294z"/>
		</g>
		<g>
			<path fill="#4D2600" d="M104.541,16.843c4.607,0,6.514,2.232,7.354,3.27l0.044,0.122l0.074,0.107
				c1.076,1.564,0.305,6.427-1.036,8.78c-0.467,0.822-1.362,1.375-2.042,1.559l-0.059,0.016l-0.056,0.023
				c-0.464,0.188-0.979,0.3-1.376,0.3c-0.274,0-0.405-0.055-0.423-0.086c-0.159-0.806-0.243-1.485-0.342-2.271
				c-0.087-0.697-0.186-1.488-0.355-2.526l-0.006-0.041l-0.01-0.04c-0.545-2.189-2.18-3.444-4.485-3.444
				c-1.276,0-2.707,0.386-4.25,1.146c-4.332,2.133-8.691,8.949-10.367,16.207c-2.756,11.938-1.968,14.366-0.35,16.932
				c0.033,0.054,0.067,0.103,0.122,0.179l0.047,0.071l0.058,0.062c0.868,0.918,1.98,1.384,3.305,1.384
				c4.796,0,10.884-6.335,11.563-7.057c1.045-1.111,2.207-1.82,3.187-1.944l0.049-0.006l0.049-0.011
				c0.215-0.049,0.421-0.074,0.615-0.074c0.337,0,0.803,0.078,1.104,0.448c0.305,0.376,0.389,0.986,0.234,1.721
				c-0.683,3.274-7.796,12.263-17.887,14.078c-1.426,0.257-2.771,0.387-3.996,0.387c-3.264,0-5.805-0.918-7.553-2.729l-0.036-0.037
				l-0.039-0.033c-3.802-3.204-4.941-9.532-3.209-17.819c4.96-23.756,24.723-27.971,26.96-28.374
				C102.525,16.943,103.572,16.843,104.541,16.843L104.541,16.843 M104.541,15.843c-0.983,0-2.076,0.095-3.291,0.313
				c-3.61,0.649-22.864,5.697-27.762,29.153c-1.817,8.696-0.517,15.366,3.544,18.788c1.88,1.948,4.6,3.035,8.273,3.035
				c1.275,0,2.664-0.131,4.173-0.402c10.73-1.931,17.973-11.426,18.688-14.858c0.434-2.068-0.635-3.373-2.317-3.373
				c-0.266,0-0.546,0.033-0.838,0.1c-1.127,0.143-2.479,0.857-3.79,2.251c-1.998,2.127-7.09,6.742-10.834,6.742
				c-0.978,0-1.863-0.315-2.578-1.071c-0.033-0.05-0.068-0.093-0.101-0.146c-1.456-2.31-2.198-4.624,0.471-16.186
				c1.73-7.497,6.092-13.692,9.834-15.535c1.436-0.708,2.723-1.043,3.809-1.043c1.827,0,3.082,0.951,3.515,2.686
				c0.358,2.2,0.395,3.263,0.702,4.829c0.131,0.663,0.717,0.893,1.405,0.893c0.583,0,1.238-0.166,1.751-0.374
				c0.976-0.264,2.062-0.994,2.65-2.029c1.44-2.529,2.378-7.824,0.99-9.842c-0.033-0.093-0.067-0.173-0.112-0.228
				C111.86,18.478,109.721,15.843,104.541,15.843L104.541,15.843z"/>
		</g>
	</g>
</g>
<g id="Texte">
	<g>
		
			<linearGradient id="SVGID_1_" gradientUnits="userSpaceOnUse" x1="389.1504" y1="63.7627" x2="389.1504" y2="14.7616" gradientTransform="matrix(0.9842 -0.1771 0.1771 0.9842 -56.6836 81.1646)">
			<stop  offset="0.05" style="stop-color:#4D2600"/>
			<stop  offset="0.15" style="stop-color:#D99100"/>
			<stop  offset="0.28" style="stop-color:#D99100"/>
			<stop  offset="0.4" style="stop-color:#4D2600"/>
			<stop  offset="0.46" style="stop-color:#4D2600"/>
			<stop  offset="0.48" style="stop-color:#E6DEB7"/>
			<stop  offset="0.6" style="stop-color:#D9BB20"/>
			<stop  offset="0.75" style="stop-color:#D99100"/>
			<stop  offset="1" style="stop-color:#D99100"/>
		</linearGradient>
		<path fill="url(#SVGID_1_)" d="M327.229,59.343c0.001,2.895,0.573,4.934,1.72,6.112c1.146,1.177,2.927,1.551,5.346,1.116
			c1.035-0.187,2.05-0.533,3.045-1.038c0.993-0.507,2.199-1.306,3.618-2.396c0.778-0.609,1.756-1.452,2.937-2.524
			c1.181-1.076,1.967-1.647,2.366-1.719c0.692-0.125,1.346,0.09,1.961,0.646c0.613,0.555,0.891,1.217,0.838,1.982
			c-0.049,0.662-0.317,1.371-0.806,2.125c-0.489,0.752-1.179,1.521-2.075,2.31c-2.945,2.621-5.959,4.742-9.04,6.367
			c-3.083,1.625-6.193,2.722-9.327,3.285c-5.129,0.923-9.066,0.208-11.818-2.142c-2.751-2.354-3.945-6.016-3.583-10.99
			c0.284-3.892,1.356-7.786,3.215-11.686c1.858-3.897,4.316-7.401,7.376-10.512c2.549-2.599,5.537-4.837,8.966-6.705
			c3.427-1.871,6.815-3.107,10.162-3.71c3.985-0.717,7.048-0.36,9.186,1.072c2.137,1.429,3.087,3.745,2.853,6.948
			c-0.347,4.764-2.942,9.172-7.791,13.23c-4.845,4.058-10.844,6.732-17.99,8.018L327.229,59.343z M337.952,36.965
			c-1.009,0.182-1.979,0.636-2.913,1.365c-0.931,0.729-1.894,1.798-2.89,3.204c-1.053,1.521-1.984,3.308-2.789,5.357
			c-0.805,2.053-1.255,3.725-1.351,5.023c-0.025,0.342,0.173,0.588,0.596,0.734c0.424,0.146,0.966,0.159,1.631,0.039
			c2.497-0.449,4.868-1.955,7.112-4.511c2.244-2.56,3.468-5.201,3.665-7.926c0.098-1.298-0.11-2.22-0.622-2.769
			C339.881,36.937,339.068,36.765,337.952,36.965z"/>
		<g>
			
				<linearGradient id="SVGID_2_" gradientUnits="userSpaceOnUse" x1="362.374" y1="63.7578" x2="362.374" y2="14.7617" gradientTransform="matrix(0.9842 -0.1771 0.1771 0.9842 -56.6836 81.1646)">
				<stop  offset="0.05" style="stop-color:#4D2600"/>
				<stop  offset="0.15" style="stop-color:#D99100"/>
				<stop  offset="0.28" style="stop-color:#D99100"/>
				<stop  offset="0.4" style="stop-color:#4D2600"/>
				<stop  offset="0.46" style="stop-color:#4D2600"/>
				<stop  offset="0.48" style="stop-color:#E6DEB7"/>
				<stop  offset="0.6" style="stop-color:#D9BB20"/>
				<stop  offset="0.75" style="stop-color:#D99100"/>
				<stop  offset="1" style="stop-color:#D99100"/>
			</linearGradient>
			<path fill="url(#SVGID_2_)" d="M310.683,23.325c1.234-4.164-6.342-7.713-7.853-4.549c-3.567,7.475-10.032,13.589-10.032,13.589
				S308.859,29.476,310.683,23.325z"/>
			
				<linearGradient id="SVGID_3_" gradientUnits="userSpaceOnUse" x1="347.4316" y1="63.7627" x2="347.4316" y2="14.7616" gradientTransform="matrix(0.9842 -0.1771 0.1771 0.9842 -56.6836 81.1646)">
				<stop  offset="0.05" style="stop-color:#4D2600"/>
				<stop  offset="0.15" style="stop-color:#D99100"/>
				<stop  offset="0.28" style="stop-color:#D99100"/>
				<stop  offset="0.4" style="stop-color:#4D2600"/>
				<stop  offset="0.46" style="stop-color:#4D2600"/>
				<stop  offset="0.48" style="stop-color:#E6DEB7"/>
				<stop  offset="0.6" style="stop-color:#D9BB20"/>
				<stop  offset="0.75" style="stop-color:#D99100"/>
				<stop  offset="1" style="stop-color:#D99100"/>
			</linearGradient>
			<path fill="url(#SVGID_3_)" d="M307.172,66.925c-0.616-0.555-1.267-0.771-1.957-0.646c-0.399,0.072-1.189,0.644-2.37,1.72
				c-1.179,1.072-2.155,1.915-2.937,2.524c-1.417,1.091-2.622,1.889-3.618,2.396c-0.993,0.504-2.008,0.852-3.044,1.038
				c-2.419,0.435-4.228,0.194-5.374-0.982c-1.148-1.177-2-1.868-1.745-5.979l1.155-0.208c7.149-1.286,13.174-4.094,18.019-8.15
				c4.849-4.062,7.459-8.537,7.806-13.303c0.234-3.199-0.71-5.551-2.847-6.98c-2.139-1.43-5.197-1.805-9.182-1.087
				c-3.349,0.603-6.733,1.83-10.163,3.703c-3.427,1.87-6.414,4.101-8.964,6.698c-3.06,3.11-5.518,6.613-7.374,10.512
				c-1.859,3.9-2.931,7.793-3.214,11.682c-0.364,4.977,0.831,8.637,3.582,10.99c2.751,2.35,6.689,3.064,11.819,2.143
				c3.135-0.564,6.244-1.66,9.326-3.285c3.081-1.625,6.094-3.746,9.04-6.367c0.895-0.787,1.587-1.558,2.075-2.311
				s0.755-1.463,0.806-2.123C308.066,68.143,307.786,67.48,307.172,66.925z M286.964,59.3c0.095-1.299,0.543-2.97,1.351-5.022
				c0.801-2.05,1.734-3.837,2.788-5.358c0.995-1.406,1.959-2.475,2.891-3.203c0.931-0.729,1.899-1.184,2.913-1.365
				c1.113-0.201,1.926-0.028,2.438,0.519c0.514,0.548,0.719,1.472,0.622,2.769c-0.198,2.725-1.421,5.366-3.665,7.926
				c-2.245,2.557-4.616,4.062-7.115,4.512c-0.662,0.119-1.206,0.105-1.628-0.04C287.136,59.888,286.937,59.643,286.964,59.3z"/>
		</g>
		
			<linearGradient id="SVGID_4_" gradientUnits="userSpaceOnUse" x1="298.4702" y1="63.7617" x2="298.4702" y2="14.7621" gradientTransform="matrix(0.9842 -0.1771 0.1771 0.9842 -56.6836 81.1646)">
			<stop  offset="0.05" style="stop-color:#4D2600"/>
			<stop  offset="0.15" style="stop-color:#D99100"/>
			<stop  offset="0.28" style="stop-color:#D99100"/>
			<stop  offset="0.4" style="stop-color:#4D2600"/>
			<stop  offset="0.46" style="stop-color:#4D2600"/>
			<stop  offset="0.48" style="stop-color:#E6DEB7"/>
			<stop  offset="0.6" style="stop-color:#D9BB20"/>
			<stop  offset="0.75" style="stop-color:#D99100"/>
			<stop  offset="1" style="stop-color:#D99100"/>
		</linearGradient>
		<path fill="url(#SVGID_4_)" d="M246.318,50.667c32.389-16.503,19.306,21.412,18.642,25.459c-0.871,5.309,2.392,4.369,0.467,8.063
			c-1.61,3.095-20.896,9.104-19.324,2.355c1.011-4.344,2.85-2.842,3.895-9.056c1.084-6.468,2.521-13.35,2.664-16.579
			c0.331-7.498-5.432-3.771-7.242-0.25c-1.813,3.52-6.313,24.534-4.232,27.83c1.367,2.165-16.814,8.185-18.674,3.771
			c-0.876-2.077,1.837-2.865,3.733-8.454c1.81-5.331,8.046-37.215,8.209-39.236c0.14-1.772-0.049-4.154-0.557-6.614
			c-1-4.838,0.375-6.343,7.11-9.984c2.744-1.483,10.327-3.229,9.773,1.332C250.681,30.144,246.318,50.667,246.318,50.667z"/>
		
			<linearGradient id="SVGID_5_" gradientUnits="userSpaceOnUse" x1="265.5869" y1="63.7627" x2="265.5869" y2="14.7618" gradientTransform="matrix(0.9842 -0.1771 0.1771 0.9842 -56.6836 81.1646)">
			<stop  offset="0.05" style="stop-color:#4D2600"/>
			<stop  offset="0.15" style="stop-color:#D99100"/>
			<stop  offset="0.28" style="stop-color:#D99100"/>
			<stop  offset="0.4" style="stop-color:#4D2600"/>
			<stop  offset="0.46" style="stop-color:#4D2600"/>
			<stop  offset="0.48" style="stop-color:#E6DEB7"/>
			<stop  offset="0.6" style="stop-color:#D9BB20"/>
			<stop  offset="0.75" style="stop-color:#D99100"/>
			<stop  offset="1" style="stop-color:#D99100"/>
		</linearGradient>
		<path fill="url(#SVGID_5_)" d="M202.396,65.798l-5.32-1.984c-0.48,0.086,0.682-3.266,0.682-3.266
			c0.471-1.97,4.086-3.02,8.865-7.239c3.2-2.825,3.888-10.39,5.109-10.772l6.195-1.114c2.538,0.13,0.078,10.776,0.078,10.776
			l8.132,1.766c0.558-0.101-0.24,4.236-1.388,4.553c0,0-8.915,4.662-9.087,4.895c-0.939,1.271-3.942,17.564-3.942,17.564
			c-0.08,0.341-0.146,0.693-0.203,1.061c-0.054,0.363-0.1,0.809-0.144,1.337c-0.109,1.382,0.181,2.375,0.864,2.976
			c0.687,0.6,8.317,3.041,3.405,7.144c-2.629,2.194-7.806,3.622-10.144,4.043c-2.924,0.526-5.088,0.157-6.494-1.106
			c-1.404-1.262-1.993-3.359-1.762-6.295c0.094-1.137,0.51-3.452,1.257-6.943l0.007-0.084L202.396,65.798z"/>
		
			<linearGradient id="SVGID_6_" gradientUnits="userSpaceOnUse" x1="223.5278" y1="63.7617" x2="223.5278" y2="14.7617" gradientTransform="matrix(0.9842 -0.1771 0.1771 0.9842 -56.6836 81.1646)">
			<stop  offset="0.05" style="stop-color:#4D2600"/>
			<stop  offset="0.15" style="stop-color:#D99100"/>
			<stop  offset="0.28" style="stop-color:#D99100"/>
			<stop  offset="0.4" style="stop-color:#4D2600"/>
			<stop  offset="0.46" style="stop-color:#4D2600"/>
			<stop  offset="0.48" style="stop-color:#E6DEB7"/>
			<stop  offset="0.6" style="stop-color:#D9BB20"/>
			<stop  offset="0.75" style="stop-color:#D99100"/>
			<stop  offset="1" style="stop-color:#D99100"/>
		</linearGradient>
		<path fill="url(#SVGID_6_)" d="M192.826,74.435c0.4-5.451-0.942-9.504-4.027-12.162c-3.082-2.656-7.401-3.486-12.955-2.488
			c-3.295,0.594-6.585,1.886-9.88,3.875c-3.292,1.989-6.281,4.507-8.968,7.549c-2.657,2.984-4.7,6.021-6.134,9.113
			s-2.269,6.291-2.512,9.598c-0.387,5.293,1.028,9.342,4.247,12.145c3.218,2.801,7.533,3.717,12.954,2.74
			c3.534-0.635,6.922-1.938,10.16-3.902c3.236-1.967,6.146-4.475,8.73-7.527c2.466-2.871,4.42-5.945,5.865-9.221
			C191.754,80.876,192.592,77.638,192.826,74.435z M165.944,83.26c2.12-9.173,3.609-13.144,7.661-13.787
			c4.425-0.7,3.578,6.934,2.793,10.407c-1.191,5.286-3.582,14.938-8.312,16.008C163.699,96.881,165.131,86.779,165.944,83.26z"/>
		
			<linearGradient id="SVGID_7_" gradientUnits="userSpaceOnUse" x1="182.978" y1="63.7627" x2="182.978" y2="14.7621" gradientTransform="matrix(0.9842 -0.1771 0.1771 0.9842 -56.6836 81.1646)">
			<stop  offset="0.05" style="stop-color:#4D2600"/>
			<stop  offset="0.15" style="stop-color:#D99100"/>
			<stop  offset="0.28" style="stop-color:#D99100"/>
			<stop  offset="0.4" style="stop-color:#4D2600"/>
			<stop  offset="0.46" style="stop-color:#4D2600"/>
			<stop  offset="0.48" style="stop-color:#E6DEB7"/>
			<stop  offset="0.6" style="stop-color:#D9BB20"/>
			<stop  offset="0.75" style="stop-color:#D99100"/>
			<stop  offset="1" style="stop-color:#D99100"/>
		</linearGradient>
		<path fill="url(#SVGID_7_)" d="M150.686,71.559c0.728-3.478-4.021-9.344-12.304-1.427c-5.011,4.789-2.791,0.882-3.255-0.031
			c-2.526-4.977-17.813,3.186-18.746,9.965c-0.148,1.072,4.214,2.849,4.475,3.35c0.19,0.363-1.879,11.846-4.094,20.108
			c-1.168,4.352-9.335,9.817-2.943,9.976c6.413,0.158,18.847-2.308,19.351-5.164c0.287-1.635-2.749-3.975-2.236-7.295
			c1.676-9.943,2.766-15.476,3.905-18.69c1.538,0.728,2.592,0.196,5.527-0.332C142.132,81.7,149.522,77.128,150.686,71.559z"/>
		
			<linearGradient id="SVGID_8_" gradientUnits="userSpaceOnUse" x1="142.2036" y1="63.7627" x2="142.2036" y2="14.7616" gradientTransform="matrix(0.9842 -0.1771 0.1771 0.9842 -56.6836 81.1646)">
			<stop  offset="0.05" style="stop-color:#4D2600"/>
			<stop  offset="0.15" style="stop-color:#D99100"/>
			<stop  offset="0.28" style="stop-color:#D99100"/>
			<stop  offset="0.4" style="stop-color:#4D2600"/>
			<stop  offset="0.46" style="stop-color:#4D2600"/>
			<stop  offset="0.48" style="stop-color:#E6DEB7"/>
			<stop  offset="0.6" style="stop-color:#D9BB20"/>
			<stop  offset="0.75" style="stop-color:#D99100"/>
			<stop  offset="1" style="stop-color:#D99100"/>
		</linearGradient>
		<path fill="url(#SVGID_8_)" d="M112.789,88.835c0.399-5.451-0.944-9.504-4.029-12.16c-3.082-2.657-7.402-3.488-12.956-2.488
			c-3.294,0.593-6.584,1.885-9.879,3.874c-3.291,1.989-6.281,4.507-8.968,7.548c-2.656,2.984-4.7,6.022-6.135,9.114
			c-1.433,3.092-2.268,6.291-2.51,9.599c-0.387,5.293,1.027,9.341,4.247,12.143c3.217,2.802,7.534,3.717,12.954,2.742
			c3.533-0.637,6.921-1.938,10.158-3.903c3.237-1.968,6.147-4.476,8.732-7.527c2.465-2.871,4.418-5.944,5.863-9.22
			C111.715,95.277,112.553,92.04,112.789,88.835z M85.904,97.661c2.121-9.173,3.61-13.143,7.662-13.787
			c4.427-0.701,3.578,6.934,2.794,10.406c-1.192,5.287-3.583,14.938-8.313,16.009C83.66,111.282,85.092,101.181,85.904,97.661z"/>
		
			<linearGradient id="SVGID_9_" gradientUnits="userSpaceOnUse" x1="86.3818" y1="63.7622" x2="86.3818" y2="14.7618" gradientTransform="matrix(0.9842 -0.1771 0.1771 0.9842 -56.6836 81.1646)">
			<stop  offset="0.05" style="stop-color:#4D2600"/>
			<stop  offset="0.15" style="stop-color:#D99100"/>
			<stop  offset="0.28" style="stop-color:#D99100"/>
			<stop  offset="0.4" style="stop-color:#4D2600"/>
			<stop  offset="0.46" style="stop-color:#4D2600"/>
			<stop  offset="0.48" style="stop-color:#E6DEB7"/>
			<stop  offset="0.6" style="stop-color:#D9BB20"/>
			<stop  offset="0.75" style="stop-color:#D99100"/>
			<stop  offset="1" style="stop-color:#D99100"/>
		</linearGradient>
		<path fill="url(#SVGID_9_)" d="M57.564,64.976c-3.545-1.564-7.459-1.235-10.945-0.607l-25.123,4.52
			c-8.924,1.605-8.671,10.834-5.06,11.681L7.322,123.74c-4.362,2.747-6.252,8.319-3.612,9.488c0.612,0.542,1.587,0.709,3.159,0.42
			c0,0,25.578-4.567,27.205-4.927c13.867-3.058,28.902-15.509,33.265-36.393C71.273,73.497,64.215,67.483,57.564,64.976z
			 M27.574,117.019l8.071-38.633c1.784-4.005,5.346-5.541,8.759-3.113c2.938,2.992,4.712,9.559,2.453,20.793
			c-3.082,15.326-13.531,23.703-18.181,23.934C27.581,119.761,27.211,118.758,27.574,117.019z"/>
	</g>
	<g>
		
			<linearGradient id="SVGID_10_" gradientUnits="userSpaceOnUse" x1="243.1445" y1="14.7622" x2="243.1445" y2="-32.2373" gradientTransform="matrix(0.9842 -0.1771 0.1771 0.9842 -56.6836 81.1646)">
			<stop  offset="0.05" style="stop-color:#4D2600"/>
			<stop  offset="0.15" style="stop-color:#D99100"/>
			<stop  offset="0.28" style="stop-color:#D99100"/>
			<stop  offset="0.4" style="stop-color:#4D2600"/>
			<stop  offset="0.46" style="stop-color:#4D2600"/>
			<stop  offset="0.48" style="stop-color:#E6DEB7"/>
			<stop  offset="0.6" style="stop-color:#D9BB20"/>
			<stop  offset="0.75" style="stop-color:#D99100"/>
			<stop  offset="1" style="stop-color:#D99100"/>
		</linearGradient>
		<path fill="url(#SVGID_10_)" d="M181.208,20.382c5.542-3.518,15.658-4.207,17.196,4.25c1.298,7.135-4.327,24.458-20.485,26.993
			c-4.144,0.648-7.285,0.45-9.354-0.895c-2.071-1.346-2.985-3.655-2.741-6.927c0.032-0.467,0.106-1.04,0.223-1.727
			c0.111-0.688,0.263-1.476,0.452-2.361l1.465-6.732c0.806-3.852,1.477-7.306,2.013-10.36c0.537-3.054,0.724-5.138,0.938-6.353
			c0.777-4.402-2.13-4.872-0.43-8.408c1.707-3.549,12.598-6.05,13.342-5.193c0.624,0.716-0.776,8.893-0.776,8.893L181.208,20.382z
			 M183.708,25.67c-2.859,0.455-3.911,3.255-5.404,9.726c-0.574,2.482-1.433,8.889,1.662,8.188c3.336-0.755,4.87-6.844,5.712-10.574
			C186.231,30.562,186.829,25.175,183.708,25.67z"/>
		
			<linearGradient id="SVGID_11_" gradientUnits="userSpaceOnUse" x1="208.1968" y1="14.7617" x2="208.1968" y2="-32.2383" gradientTransform="matrix(0.9842 -0.1771 0.1771 0.9842 -56.6836 81.1646)">
			<stop  offset="0.05" style="stop-color:#4D2600"/>
			<stop  offset="0.15" style="stop-color:#D99100"/>
			<stop  offset="0.28" style="stop-color:#D99100"/>
			<stop  offset="0.4" style="stop-color:#4D2600"/>
			<stop  offset="0.46" style="stop-color:#4D2600"/>
			<stop  offset="0.48" style="stop-color:#E6DEB7"/>
			<stop  offset="0.6" style="stop-color:#D9BB20"/>
			<stop  offset="0.75" style="stop-color:#D99100"/>
			<stop  offset="1" style="stop-color:#D99100"/>
		</linearGradient>
		<path fill="url(#SVGID_11_)" d="M147.393,53.39c-1.778,2.043-7.9,4.967-9.836,5.314c-2.177,0.392-3.782-0.043-4.82-1.305
			c-1.036-1.265-1.433-3.273-1.188-6.033c0.177-1.998,2.978-14.59,3.176-16.012c0.295-2.102-1.33-3.427-1.152-4.275
			c0.721-3.456,13.92-8.645,12.774-1.688c-0.264,1.598-4.483,18.535-2.89,20.092c1.309,1.273,4.127-0.103,5.021-3.58
			c0.645-2.511,2.354-11.23,2.57-12.304c0.92-4.592-1.618-5.177,0.805-7.177c4.385-3.617,12.592-5.175,11.205-0.267
			c-0.127,0.452-3.713,18.251-4.431,21.206c-0.857,3.538,2.919,3.295,0.066,6.417c-1.327,1.454-5.931,2.188-6.753,2.337
			C151.083,56.271,147.479,55.663,147.393,53.39z"/>
		
			<linearGradient id="SVGID_12_" gradientUnits="userSpaceOnUse" x1="183.1362" y1="14.7632" x2="183.1362" y2="-32.2383" gradientTransform="matrix(0.9842 -0.1771 0.1771 0.9842 -56.6836 81.1646)">
			<stop  offset="0.05" style="stop-color:#4D2600"/>
			<stop  offset="0.15" style="stop-color:#D99100"/>
			<stop  offset="0.28" style="stop-color:#D99100"/>
			<stop  offset="0.4" style="stop-color:#4D2600"/>
			<stop  offset="0.46" style="stop-color:#4D2600"/>
			<stop  offset="0.48" style="stop-color:#E6DEB7"/>
			<stop  offset="0.6" style="stop-color:#D9BB20"/>
			<stop  offset="0.75" style="stop-color:#D99100"/>
			<stop  offset="1" style="stop-color:#D99100"/>
		</linearGradient>
		<path fill="url(#SVGID_12_)" d="M127.788,39.095c-0.619,2.889-1.14,5.488-1.566,7.805c-0.425,2.314-0.658,3.729-0.694,4.242
			c-0.05,0.638,0.018,1.041,0.204,1.211c0.184,0.17,0.909,2.377,1.492,2.272c0.081-0.015,2.705,4.989-8.46,7.524
			c-6.748,1.529-8.396-0.256-8.321-1.24c0.049-0.638,2.018-2.715,2.76-5.665c0.741-2.949,6.851-31.699,6.657-32.062
			c-1.314-2.436-3.459-6.148,6.035-9.947c2.206-0.884,5.136-1.631,6.42,0.123c0.3,0.408,0.462,0.95,0.406,1.688
			c-0.028,0.371-0.215,1.368-0.556,2.989c-0.221,1.051-0.395,1.904-0.522,2.555L127.788,39.095z"/>
		
			<linearGradient id="SVGID_13_" gradientUnits="userSpaceOnUse" x1="155.8169" y1="14.7617" x2="155.8169" y2="-32.2383" gradientTransform="matrix(0.9842 -0.1771 0.1771 0.9842 -56.6836 81.1646)">
			<stop  offset="0.05" style="stop-color:#4D2600"/>
			<stop  offset="0.15" style="stop-color:#D99100"/>
			<stop  offset="0.28" style="stop-color:#D99100"/>
			<stop  offset="0.4" style="stop-color:#4D2600"/>
			<stop  offset="0.46" style="stop-color:#4D2600"/>
			<stop  offset="0.48" style="stop-color:#E6DEB7"/>
			<stop  offset="0.6" style="stop-color:#D9BB20"/>
			<stop  offset="0.75" style="stop-color:#D99100"/>
			<stop  offset="1" style="stop-color:#D99100"/>
		</linearGradient>
		<path fill="url(#SVGID_13_)" d="M106.012,49.599c-1.127,0.143-2.479,0.857-3.79,2.251c-2.52,2.683-9.961,9.321-13.412,5.671
			c-0.033-0.05-0.068-0.093-0.101-0.146c-1.456-2.31-2.198-4.624,0.471-16.186c1.73-7.497,6.092-13.692,9.834-15.535
			c3.851-1.897,6.634-1.124,7.323,1.643c0.358,2.2,0.395,3.263,0.702,4.829c0.242,1.225,2.038,0.973,3.156,0.52
			c0.976-0.264,2.062-0.994,2.65-2.029c1.44-2.529,2.378-7.824,0.99-9.842c-0.033-0.093-0.067-0.173-0.112-0.228
			c-1.027-1.271-3.859-4.761-11.474-3.391c-3.61,0.649-22.864,5.697-27.762,29.153c-1.817,8.696-0.517,15.366,3.544,18.788
			c2.532,2.624,6.59,3.687,12.446,2.633c10.73-1.931,17.973-11.426,18.688-14.858C109.669,50.478,108.157,49.106,106.012,49.599z"/>
	</g>
</g>
<g id="Contour" opacity="0.5">
	<g>
		<g>
			<path fill="#4D2600" d="M345.812,29.506c2.244,0,4.079,0.478,5.503,1.432c2.137,1.429,3.087,3.745,2.853,6.948
				c-0.347,4.764-2.942,9.172-7.791,13.23c-4.845,4.058-10.844,6.732-17.99,8.018l-1.156,0.209c0.001,2.895,0.573,4.934,1.72,6.112
				c0.838,0.86,2.015,1.292,3.532,1.292c0.559,0,1.163-0.059,1.813-0.176c1.035-0.187,2.05-0.533,3.045-1.038
				c0.993-0.507,2.199-1.306,3.618-2.396c0.778-0.609,1.756-1.452,2.937-2.524c1.181-1.076,1.967-1.647,2.366-1.719
				c0.127-0.023,0.253-0.034,0.378-0.034c0.554,0,1.081,0.227,1.583,0.681c0.613,0.555,0.891,1.217,0.838,1.982
				c-0.049,0.662-0.317,1.371-0.806,2.125c-0.489,0.752-1.179,1.521-2.075,2.31c-2.945,2.621-5.959,4.742-9.04,6.367
				c-3.083,1.625-6.193,2.722-9.327,3.285c-1.445,0.26-2.796,0.39-4.053,0.39c-3.201,0-5.789-0.844-7.766-2.531
				c-2.751-2.354-3.945-6.016-3.583-10.99c0.284-3.892,1.356-7.786,3.215-11.686c1.858-3.897,4.316-7.401,7.376-10.512
				c2.549-2.599,5.537-4.837,8.966-6.705c3.427-1.871,6.815-3.107,10.162-3.71C343.459,29.626,344.687,29.506,345.812,29.506
				 M329.412,52.77c0.25,0,0.524-0.027,0.824-0.081c2.497-0.449,4.868-1.955,7.112-4.511c2.244-2.56,3.468-5.201,3.665-7.926
				c0.098-1.298-0.11-2.22-0.622-2.769c-0.373-0.399-0.908-0.6-1.605-0.6c-0.256,0-0.534,0.027-0.834,0.081
				c-1.009,0.182-1.979,0.636-2.913,1.365c-0.931,0.729-1.894,1.798-2.89,3.204c-1.053,1.521-1.984,3.308-2.789,5.357
				c-0.805,2.053-1.255,3.725-1.351,5.023c-0.025,0.342,0.173,0.588,0.596,0.734C328.838,52.729,329.107,52.77,329.412,52.77
				 M345.812,28.506L345.812,28.506c-1.179,0-2.478,0.127-3.859,0.375c-3.44,0.619-6.961,1.903-10.465,3.816
				c-3.491,1.902-6.587,4.218-9.2,6.883c-3.121,3.173-5.667,6.801-7.564,10.781c-1.904,3.996-3.018,8.048-3.31,12.043
				c-0.385,5.285,0.938,9.263,3.93,11.823c2.155,1.84,4.986,2.771,8.416,2.771c1.31,0,2.733-0.136,4.229-0.405
				c3.218-0.579,6.453-1.718,9.616-3.385c3.143-1.657,6.251-3.846,9.239-6.505c0.951-0.836,1.709-1.683,2.248-2.512
				c0.58-0.895,0.904-1.768,0.965-2.597c0.074-1.075-0.328-2.041-1.164-2.797c-0.689-0.624-1.447-0.939-2.254-0.939
				c-0.184,0-0.37,0.017-0.556,0.05c-0.456,0.082-1.12,0.376-2.862,1.964c-1.19,1.082-2.133,1.892-2.879,2.477
				c-1.357,1.043-2.522,1.816-3.456,2.293c-0.904,0.458-1.836,0.776-2.769,0.944c-0.588,0.106-1.139,0.16-1.636,0.16
				c-1.246,0-2.167-0.324-2.816-0.99c-0.847-0.871-1.323-2.41-1.418-4.582l0.316-0.057c7.285-1.311,13.494-4.081,18.454-8.235
				c5.041-4.219,7.781-8.903,8.146-13.925c0.262-3.573-0.847-6.216-3.294-7.852C350.286,29.045,348.248,28.506,345.812,28.506
				L345.812,28.506z M329.03,51.732c0.127-1.159,0.551-2.663,1.261-4.476c0.771-1.965,1.674-3.698,2.681-5.153
				c0.931-1.313,1.835-2.321,2.685-2.986c0.798-0.623,1.631-1.017,2.473-1.168c0.24-0.043,0.462-0.065,0.657-0.065
				c0.611,0,0.81,0.213,0.875,0.282c0.302,0.324,0.429,1.039,0.355,2.011c-0.181,2.49-1.331,4.959-3.42,7.342
				c-2.082,2.371-4.282,3.78-6.537,4.186c-0.24,0.044-0.458,0.065-0.647,0.065C329.268,51.77,329.14,51.757,329.03,51.732
				L329.03,51.732z"/>
		</g>
		<g>
			<g>
				<path fill="#4D2600" d="M305.069,17.562c2.704,0,6.516,2.717,5.613,5.764c-1.823,6.15-17.885,9.04-17.885,9.04
					s6.465-6.114,10.032-13.589C303.236,17.927,304.078,17.562,305.069,17.562 M305.069,16.562c-1.455,0-2.601,0.65-3.142,1.784
					c-3.447,7.223-9.754,13.233-9.817,13.293l-2.437,2.305l3.301-0.594c1.706-0.307,16.724-3.188,18.667-9.74
					c0.402-1.358,0.103-2.804-0.844-4.071C309.51,17.813,307.101,16.562,305.069,16.562L305.069,16.562z"/>
			</g>
			<g>
				<path fill="#4D2600" d="M304.724,36.913c2.259,0,4.104,0.484,5.536,1.442c2.137,1.43,3.081,3.781,2.847,6.98
					c-0.347,4.766-2.957,9.241-7.806,13.303c-4.845,4.057-10.869,6.864-18.019,8.15l-1.155,0.208
					c-0.255,4.11,0.597,4.802,1.745,5.979c0.798,0.819,1.916,1.184,3.338,1.184c0.621,0,1.3-0.069,2.036-0.202
					c1.036-0.187,2.051-0.534,3.044-1.038c0.996-0.508,2.201-1.306,3.618-2.396c0.781-0.609,1.758-1.452,2.937-2.524
					c1.181-1.076,1.971-1.647,2.37-1.72c0.126-0.022,0.25-0.034,0.374-0.034c0.553,0,1.079,0.227,1.583,0.681
					c0.614,0.556,0.895,1.218,0.84,1.984c-0.051,0.66-0.317,1.37-0.806,2.123s-1.181,1.523-2.075,2.311
					c-2.946,2.621-5.959,4.742-9.04,6.367c-3.082,1.625-6.191,2.721-9.326,3.285c-1.445,0.26-2.795,0.39-4.051,0.39
					c-3.203,0-5.792-0.844-7.768-2.532c-2.751-2.354-3.946-6.014-3.582-10.99c0.283-3.889,1.354-7.781,3.214-11.682
					c1.856-3.898,4.314-7.401,7.374-10.512c2.55-2.598,5.537-4.828,8.964-6.698c3.43-1.873,6.814-3.101,10.163-3.703
					C302.394,37.03,303.609,36.913,304.724,36.913 M288.365,60.155c0.249,0,0.523-0.026,0.82-0.08
					c2.499-0.45,4.87-1.955,7.115-4.512c2.244-2.56,3.467-5.201,3.665-7.926c0.097-1.297-0.108-2.221-0.622-2.769
					c-0.374-0.4-0.909-0.6-1.604-0.6c-0.256,0-0.534,0.027-0.833,0.081c-1.014,0.182-1.982,0.636-2.913,1.365
					c-0.932,0.729-1.896,1.797-2.891,3.203c-1.054,1.521-1.987,3.309-2.788,5.358c-0.808,2.053-1.256,3.724-1.351,5.022
					c-0.027,0.343,0.172,0.588,0.594,0.735C287.79,60.115,288.059,60.155,288.365,60.155 M304.724,35.913L304.724,35.913
					c-1.171,0-2.457,0.125-3.823,0.371c-3.453,0.622-6.974,1.903-10.465,3.81c-3.5,1.91-6.595,4.224-9.198,6.875
					c-3.124,3.176-5.668,6.804-7.563,10.782c-1.904,3.995-3.018,8.045-3.309,12.039c-0.387,5.284,0.936,9.261,3.93,11.823
					c2.154,1.84,4.986,2.772,8.418,2.772c1.309,0,2.732-0.137,4.228-0.405c3.221-0.58,6.456-1.719,9.616-3.385
					c3.14-1.656,6.249-3.845,9.238-6.505c0.956-0.841,1.714-1.688,2.25-2.514c0.576-0.887,0.9-1.759,0.964-2.59
					c0.077-1.076-0.327-2.043-1.166-2.803c-0.693-0.624-1.45-0.939-2.254-0.939c-0.182,0-0.367,0.017-0.551,0.05
					c-0.461,0.083-1.127,0.379-2.867,1.965c-1.194,1.086-2.136,1.896-2.878,2.475c-1.354,1.043-2.52,1.816-3.457,2.294
					c-0.905,0.459-1.836,0.777-2.767,0.945c-0.687,0.124-1.313,0.186-1.858,0.186c-1.186,0-2.044-0.288-2.622-0.882l-0.135-0.138
					c-0.888-0.904-1.451-1.478-1.365-4.3l0.371-0.066c7.175-1.291,13.394-4.106,18.483-8.368c5.047-4.228,7.793-8.937,8.161-13.997
					c0.263-3.596-0.843-6.249-3.288-7.884C309.217,36.455,307.167,35.913,304.724,35.913L304.724,35.913L304.724,35.913z
					 M287.984,59.118c0.127-1.167,0.55-2.668,1.261-4.475c0.765-1.958,1.666-3.692,2.68-5.155c0.929-1.313,1.834-2.32,2.685-2.985
					c0.808-0.633,1.616-1.015,2.473-1.168c0.241-0.043,0.461-0.065,0.657-0.065c0.609,0,0.809,0.213,0.875,0.283
					c0.302,0.322,0.428,1.036,0.355,2.011c-0.181,2.49-1.332,4.959-3.42,7.341c-2.083,2.371-4.283,3.78-6.541,4.187
					c-0.237,0.043-0.454,0.064-0.643,0.064C288.22,59.155,288.092,59.143,287.984,59.118L287.984,59.118z"/>
			</g>
		</g>
		<g>
			<path fill="#4D2600" d="M247.35,26.367c2.068,0,3.7,0.731,3.433,2.936c-0.102,0.841-4.464,21.364-4.464,21.364
				c5.734-2.922,10.044-4.138,13.249-4.138c14.896,0,5.939,26.267,5.393,29.597c-0.871,5.309,2.392,4.369,0.467,8.063
				c-1.075,2.066-10.029,5.432-15.395,5.432c-2.671,0-4.452-0.834-3.93-3.076c1.011-4.344,2.85-2.842,3.895-9.056
				c1.084-6.468,2.521-13.35,2.664-16.579c0.142-3.199-0.827-4.355-2.124-4.355c-1.743,0-4.08,2.087-5.118,4.105
				c-1.813,3.52-6.313,24.534-4.232,27.83c1.017,1.609-8.771,5.349-14.624,5.349c-2.021,0-3.572-0.445-4.05-1.578
				c-0.876-2.077,1.837-2.865,3.733-8.454c1.81-5.331,8.046-37.215,8.209-39.236c0.14-1.772-0.049-4.154-0.557-6.614
				c-1-4.838,0.375-6.343,7.11-9.984C242.427,27.204,245.138,26.367,247.35,26.367 M247.35,25.367L247.35,25.367
				c-2.382,0-5.231,0.867-6.816,1.724c-6.9,3.73-8.736,5.636-7.614,11.066c0.478,2.313,0.674,4.621,0.539,6.334
				c-0.166,2.056-6.378,33.746-8.159,38.993c-0.867,2.557-1.92,4.063-2.688,5.163c-0.905,1.296-1.688,2.415-1.02,4.001
				c0.612,1.453,2.285,2.189,4.972,2.189c4.96,0,14.125-2.839,15.479-5.292c0.295-0.535,0.291-1.115-0.009-1.591
				c-1.686-2.67,2.213-22.832,4.275-26.838c0.942-1.832,2.997-3.563,4.229-3.563c0.235,0,0.405,0.068,0.551,0.221
				c0.204,0.213,0.669,0.941,0.574,3.091c-0.096,2.177-0.829,6.232-1.605,10.525c-0.351,1.943-0.714,3.953-1.046,5.933
				c-0.541,3.219-1.256,4.134-2.013,5.103c-0.675,0.864-1.373,1.759-1.869,3.892c-0.324,1.391,0.093,2.294,0.5,2.807
				c0.788,0.993,2.27,1.496,4.403,1.496c5.083,0,14.871-3.26,16.281-5.97c1.13-2.168,0.771-3.187,0.142-4.389
				c-0.435-0.829-0.884-1.687-0.508-3.974c0.062-0.378,0.268-1.177,0.529-2.188c1.491-5.766,4.982-19.269,0.227-25.411
				c-1.624-2.097-4.025-3.16-7.136-3.16c-3.155,0-7.133,1.121-11.844,3.336c1.138-5.365,3.964-18.715,4.052-19.442
				c0.137-1.127-0.112-2.058-0.739-2.766C250.278,25.801,249.038,25.367,247.35,25.367L247.35,25.367z"/>
		</g>
		<g>
			<path fill="#4D2600" d="M217.927,41.422c2.538,0.13,0.078,10.776,0.078,10.776l8.132,1.766c0.007-0.001,0.013-0.002,0.019-0.002
				c0.521,0-0.271,4.242-1.406,4.555c0,0-8.915,4.662-9.087,4.895c-0.939,1.271-3.942,17.564-3.942,17.564
				c-0.08,0.341-0.146,0.693-0.203,1.061c-0.054,0.363-0.1,0.809-0.144,1.337c-0.109,1.382,0.181,2.375,0.864,2.976
				c0.687,0.6,8.317,3.041,3.405,7.144c-2.629,2.194-7.806,3.622-10.144,4.043c-0.859,0.154-1.653,0.232-2.382,0.232
				c-1.749,0-3.119-0.446-4.112-1.339c-1.404-1.262-1.993-3.359-1.762-6.295c0.094-1.137,0.51-3.452,1.257-6.943l0.007-0.084
				l3.889-17.309l-5.32-1.984c-0.006,0.001-0.012,0.002-0.018,0.002c-0.434,0,0.699-3.268,0.699-3.268
				c0.471-1.97,4.086-3.02,8.865-7.239c3.2-2.825,3.888-10.39,5.109-10.772L217.927,41.422 M217.863,40.417l-0.113,0.021
				l-6.195,1.114l-0.063,0.012l-0.06,0.019c-1.002,0.313-1.389,1.587-2.091,3.899c-0.716,2.359-1.697,5.591-3.382,7.077
				c-2.075,1.833-3.922,3.05-5.406,4.028c-2.033,1.34-3.384,2.229-3.757,3.676c-1.154,3.341-0.855,3.762-0.615,4.1
				c0.158,0.223,0.395,0.374,0.655,0.43l4.392,1.638l-3.697,16.458l-0.016,0.068l-0.006,0.069l-0.001,0.02
				c-0.739,3.459-1.164,5.816-1.263,7.007c-0.256,3.25,0.447,5.645,2.091,7.121c1.177,1.058,2.786,1.595,4.78,1.595
				c0.784,0,1.646-0.084,2.559-0.248c2.428-0.438,7.769-1.89,10.607-4.26c1.468-1.226,2.133-2.506,1.977-3.807
				c-0.283-2.355-3.187-3.781-4.746-4.548c-0.254-0.125-0.569-0.279-0.652-0.337c-0.396-0.351-0.574-1.073-0.491-2.116
				c0.045-0.545,0.089-0.95,0.136-1.27c0.055-0.353,0.116-0.674,0.188-0.979c1.381-7.487,3.109-15.701,3.728-17.1
				c0.968-0.581,5.72-3.095,8.724-4.666c1.711-0.646,2.276-4.423,2.151-5.351c-0.104-0.769-0.602-1.078-1.036-1.121l-7.063-1.533
				c0.586-2.787,1.545-8.429,0.167-10.255c-0.347-0.459-0.839-0.728-1.387-0.756L217.863,40.417L217.863,40.417z"/>
		</g>
		<g>
			<path fill="#4D2600" d="M180.116,59.375c3.547,0,6.442,0.966,8.683,2.897c3.085,2.658,4.428,6.711,4.027,12.162
				c-0.234,3.203-1.072,6.441-2.519,9.719c-1.445,3.275-3.399,6.35-5.865,9.221c-2.584,3.053-5.494,5.561-8.73,7.527
				c-3.238,1.965-6.626,3.268-10.16,3.902c-1.399,0.252-2.725,0.378-3.977,0.378c-3.598,0-6.59-1.041-8.977-3.118
				c-3.219-2.803-4.634-6.852-4.247-12.145c0.243-3.307,1.078-6.506,2.512-9.598s3.477-6.129,6.134-9.113
				c2.687-3.042,5.676-5.56,8.968-7.549c3.295-1.989,6.585-3.281,9.88-3.875C177.36,59.512,178.784,59.375,180.116,59.375
				 M167.512,95.956c0.179,0,0.371-0.022,0.575-0.068c4.729-1.07,7.12-10.722,8.312-16.008c0.751-3.323,1.559-10.453-2.246-10.452
				c-0.172,0-0.355,0.015-0.547,0.045c-4.052,0.644-5.541,4.614-7.661,13.787C165.168,86.616,163.831,95.956,167.512,95.956
				 M180.116,58.375c-1.385,0-2.882,0.143-4.449,0.424c-3.395,0.612-6.833,1.959-10.22,4.003c-3.362,2.031-6.457,4.636-9.201,7.743
				c-2.705,3.038-4.822,6.186-6.292,9.354c-1.475,3.182-2.351,6.527-2.602,9.945c-0.41,5.601,1.134,9.965,4.587,12.972
				c2.565,2.232,5.806,3.364,9.634,3.364c1.306,0,2.704-0.132,4.154-0.394c3.635-0.653,7.169-2.01,10.501-4.032
				c3.316-2.015,6.336-4.618,8.975-7.736c2.511-2.924,4.537-6.109,6.017-9.463c1.484-3.363,2.359-6.744,2.601-10.05
				c0.423-5.757-1.048-10.128-4.372-12.992C187.035,59.432,183.894,58.375,180.116,58.375L180.116,58.375z M167.512,94.956
				c-0.283,0-0.484-0.102-0.675-0.341c-1.317-1.656-0.73-7.621,0.081-11.13c2.02-8.739,3.417-12.48,6.844-13.024
				c0.137-0.022,0.269-0.033,0.39-0.033h0c0.468,0,0.799,0.154,1.076,0.5c1.161,1.453,0.915,5.545,0.194,8.732
				c-0.795,3.53-3.216,14.271-7.557,15.253C167.738,94.941,167.619,94.956,167.512,94.956L167.512,94.956z"/>
		</g>
		<g>
			<path fill="#4D2600" d="M145.955,66.185c3.45,0,5.192,3.167,4.731,5.374c-1.163,5.569-8.554,10.142-10.32,10.459
				c-1.907,0.343-3.019,0.688-3.986,0.688c-0.522,0-1.002-0.101-1.541-0.355c-1.14,3.215-2.229,8.747-3.905,18.69
				c-0.513,3.32,2.523,5.66,2.236,7.295c-0.488,2.769-12.189,5.171-18.747,5.171c-0.207,0-0.408-0.002-0.604-0.007
				c-6.392-0.158,1.775-5.624,2.943-9.976c2.215-8.263,4.284-19.745,4.094-20.108c-0.261-0.501-4.623-2.277-4.475-3.35
				c0.733-5.322,10.313-11.497,15.618-11.497c1.453,0,2.585,0.463,3.128,1.532c0.295,0.58-0.494,2.368,0.176,2.368
				c0.385,0,1.251-0.59,3.079-2.337C141.411,67.237,143.966,66.185,145.955,66.185 M145.955,65.185
				c-2.551,0-5.332,1.421-8.264,4.224c-0.651,0.623-1.141,1.059-1.507,1.364c0.032-0.395,0.01-0.78-0.165-1.125
				c-0.481-0.948-1.57-2.079-4.019-2.079c-5.886,0-15.82,6.63-16.609,12.361c-0.189,1.368,1.614,2.367,3.524,3.426
				c0.299,0.166,0.673,0.374,0.927,0.528c-0.238,2.161-2.03,11.865-4.045,19.382c-0.38,1.416-1.724,3.117-2.91,4.617
				c-1.67,2.113-2.989,3.782-2.308,5.234c0.555,1.182,2.101,1.355,3.215,1.383c0.204,0.005,0.414,0.008,0.629,0.008
				c5.584,0,19.033-2.041,19.731-5.998c0.182-1.035-0.386-2.034-0.987-3.093c-0.7-1.231-1.493-2.628-1.246-4.223
				c1.415-8.396,2.479-14.113,3.552-17.578c0.294,0.061,0.593,0.09,0.906,0.09c0.733,0,1.494-0.161,2.456-0.363
				c0.492-0.104,1.052-0.222,1.708-0.34c1.952-0.351,9.847-5.133,11.122-11.239c0.308-1.47-0.153-3.186-1.202-4.477
				C149.362,65.931,147.761,65.185,145.955,65.185L145.955,65.185z"/>
		</g>
		<g>
			<path fill="#4D2600" d="M100.079,73.777c3.546,0,6.441,0.967,8.681,2.898c3.085,2.656,4.429,6.709,4.029,12.16
				c-0.236,3.205-1.074,6.442-2.521,9.721c-1.445,3.275-3.398,6.349-5.863,9.22c-2.585,3.052-5.495,5.56-8.732,7.527
				c-3.237,1.965-6.625,3.267-10.158,3.903c-1.398,0.251-2.723,0.377-3.974,0.377c-3.6,0-6.593-1.04-8.98-3.119
				c-3.22-2.802-4.634-6.85-4.247-12.143c0.242-3.308,1.077-6.507,2.51-9.599c1.435-3.092,3.479-6.13,6.135-9.114
				c2.687-3.041,5.677-5.559,8.968-7.548c3.295-1.989,6.585-3.281,9.879-3.874C97.321,73.913,98.746,73.777,100.079,73.777
				 M87.473,110.357c0.179,0,0.371-0.022,0.575-0.068c4.729-1.071,7.12-10.722,8.313-16.009c0.75-3.322,1.56-10.452-2.246-10.452
				c-0.173,0-0.355,0.015-0.548,0.045c-4.052,0.645-5.541,4.614-7.662,13.787C85.129,101.017,83.792,110.357,87.473,110.357
				 M100.079,72.777c-1.386,0-2.884,0.143-4.452,0.425c-3.393,0.611-6.832,1.958-10.218,4.002c-3.362,2.032-6.458,4.637-9.201,7.742
				c-2.704,3.039-4.822,6.187-6.292,9.355c-1.475,3.184-2.35,6.53-2.6,9.946c-0.409,5.601,1.135,9.965,4.588,12.97
				c2.563,2.232,5.806,3.365,9.636,3.365c1.305,0,2.702-0.132,4.151-0.393c3.639-0.656,7.172-2.013,10.5-4.033
				c3.315-2.016,6.335-4.618,8.977-7.736c2.51-2.924,4.536-6.109,6.015-9.462c1.484-3.361,2.36-6.743,2.604-10.051
				c0.422-5.758-1.049-10.129-4.374-12.992C106.996,73.833,103.855,72.777,100.079,72.777L100.079,72.777z M87.473,109.357
				c-0.283,0-0.484-0.102-0.674-0.341c-1.316-1.655-0.73-7.62,0.08-11.13c2.021-8.738,3.418-12.479,6.845-13.024
				c0.137-0.022,0.269-0.033,0.391-0.033l0,0c0.468,0,0.8,0.154,1.076,0.5c1.161,1.452,0.915,5.544,0.194,8.732
				c-0.796,3.53-3.218,14.271-7.558,15.254C87.699,109.343,87.58,109.357,87.473,109.357L87.473,109.357z"/>
		</g>
		<g>
			<path fill="#4D2600" d="M51.708,63.846c1.977,0,3.969,0.296,5.857,1.129c6.65,2.508,13.709,8.521,9.774,27.354
				c-4.362,20.884-19.397,33.335-33.265,36.393c-1.627,0.359-27.205,4.927-27.205,4.927c-0.513,0.094-0.962,0.14-1.356,0.14
				c-0.813,0-1.39-0.195-1.803-0.56c-2.64-1.169-0.75-6.741,3.612-9.488l9.114-43.172c-3.611-0.847-3.864-10.075,5.06-11.681
				l25.123-4.52C48.249,64.075,49.972,63.846,51.708,63.846 M28.677,119.999c4.649-0.23,15.099-8.607,18.181-23.934
				c2.259-11.234,0.485-17.801-2.453-20.793c-1.114-0.792-2.243-1.163-3.322-1.162c-2.226,0-4.235,1.578-5.437,4.275l-8.071,38.633
				C27.211,118.758,27.581,119.761,28.677,119.999 M51.708,62.846c-1.556,0-3.229,0.171-5.266,0.538l-25.123,4.52
				c-5.938,1.068-8.145,5.225-8.229,8.459c-0.057,2.196,0.797,4.004,2.196,4.814L6.429,123.13c-3.021,2.063-5.114,5.549-4.917,8.265
				c0.09,1.244,0.676,2.19,1.654,2.682c0.601,0.479,1.37,0.711,2.347,0.711c0.461,0,0.964-0.051,1.537-0.157
				c1.041-0.186,25.612-4.574,27.24-4.934c12.701-2.801,29.234-14.214,34.028-37.165c3.199-15.314-0.195-24.631-10.375-28.484
				C56.098,63.24,54.058,62.846,51.708,62.846L51.708,62.846z M36.602,78.697c1.044-2.281,2.673-3.587,4.48-3.587
				c0.884,0,1.782,0.312,2.669,0.926c1.568,1.643,4.752,6.767,2.125,19.832c-2.894,14.39-12.7,22.723-17.098,23.122
				c-0.208-0.087-0.512-0.396-0.226-1.767L36.602,78.697L36.602,78.697z"/>
		</g>
	</g>
	<g>
		<g>
			<path fill="#4D2600" d="M183.03,2.5c0.416,0,0.696,0.055,0.796,0.169c0.624,0.716-0.776,8.893-0.776,8.893l-1.842,8.82
				c2.342-1.486,5.499-2.468,8.482-2.468c4.076,0,7.825,1.834,8.714,6.718c1.298,7.135-4.327,24.458-20.485,26.993
				c-1.491,0.233-2.854,0.357-4.082,0.357c-2.185,0-3.948-0.392-5.272-1.252c-2.071-1.346-2.985-3.655-2.741-6.927
				c0.032-0.467,0.106-1.04,0.223-1.727c0.111-0.688,0.263-1.476,0.452-2.361l1.465-6.732c0.806-3.852,1.477-7.306,2.013-10.36
				c0.537-3.054,0.724-5.138,0.938-6.353c0.777-4.402-2.13-4.872-0.43-8.408C171.963,4.788,180.334,2.5,183.03,2.5 M179.521,43.637
				c0.139,0,0.286-0.017,0.445-0.053c3.336-0.755,4.87-6.844,5.712-10.574c0.529-2.342,1.1-7.372-1.583-7.372
				c-0.122,0-0.251,0.011-0.387,0.032c-2.859,0.455-3.911,3.255-5.404,9.726C177.759,37.751,176.959,43.637,179.521,43.637
				 M183.03,1.5L183.03,1.5c-2.555,0-11.639,2.168-13.447,5.929c-1.082,2.251-0.581,3.572-0.096,4.85
				c0.392,1.032,0.762,2.008,0.442,3.818c-0.088,0.494-0.167,1.099-0.268,1.863c-0.154,1.18-0.348,2.646-0.672,4.49
				c-0.532,3.034-1.207,6.509-2.006,10.328l-1.464,6.725c-0.194,0.911-0.35,1.722-0.462,2.414c-0.122,0.721-0.198,1.317-0.233,1.818
				c-0.271,3.643,0.803,6.28,3.194,7.834c1.463,0.95,3.366,1.413,5.817,1.413c1.264,0,2.649-0.121,4.236-0.369
				c8.3-1.303,13.368-6.259,16.158-10.187c4.404-6.2,5.928-13.735,5.156-17.974c-0.871-4.791-4.405-7.539-9.697-7.539
				c-2.336,0-4.854,0.572-7.065,1.573l1.403-6.722c1.487-8.68,0.855-9.405,0.552-9.754C184.186,1.559,183.545,1.5,183.03,1.5
				L183.03,1.5z M179.521,42.637c-0.14,0-0.214-0.036-0.305-0.151c-0.73-0.918-0.536-4.278,0.063-6.864
				c1.548-6.71,2.534-8.637,4.587-8.964c0.08-0.013,0.156-0.02,0.229-0.02c0.241,0,0.389,0.068,0.527,0.242
				c0.726,0.906,0.589,3.659,0.08,5.909c-0.565,2.507-2.068,9.166-4.957,9.819C179.661,42.628,179.586,42.637,179.521,42.637
				L179.521,42.637z"/>
		</g>
		<g>
			<path fill="#4D2600" d="M160.353,23.057c2.022,0,3.326,0.901,2.705,3.1c-0.127,0.452-3.713,18.251-4.431,21.206
				c-0.857,3.538,2.919,3.295,0.066,6.417c-1.327,1.454-5.931,2.188-6.753,2.337c-0.082,0.015-0.189,0.022-0.316,0.022
				c-1.199,0-4.153-0.693-4.231-2.749c-1.778,2.043-7.9,4.967-9.836,5.314c-0.516,0.093-1,0.14-1.451,0.14
				c-1.455,0-2.577-0.481-3.369-1.444c-1.036-1.265-1.433-3.273-1.188-6.033c0.177-1.998,2.978-14.59,3.176-16.012
				c0.295-2.102-1.33-3.427-1.152-4.275c0.461-2.209,6.021-5.126,9.673-5.126c2.062,0,3.515,0.929,3.102,3.438
				c-0.264,1.598-4.483,18.535-2.89,20.092c0.322,0.314,0.737,0.467,1.192,0.467c1.39,0,3.155-1.427,3.829-4.047
				c0.645-2.511,2.354-11.23,2.57-12.304c0.92-4.592-1.618-5.177,0.805-7.177C154.273,24.426,157.859,23.057,160.353,23.057
				 M160.353,22.057L160.353,22.057c-2.769,0-6.611,1.512-9.137,3.595c-1.802,1.488-1.516,2.711-1.239,3.894
				c0.208,0.886,0.466,1.987,0.091,3.858l-0.165,0.83c-0.505,2.538-1.844,9.279-2.394,11.421c-0.585,2.273-2.024,3.296-2.86,3.296
				c-0.182,0-0.329-0.047-0.448-0.143c-0.352-0.822-0.158-4.474,2.65-17.017c0.259-1.156,0.43-1.921,0.481-2.236
				c0.229-1.384-0.008-2.499-0.7-3.315c-0.498-0.587-1.49-1.286-3.388-1.286c-3.89,0-10.056,3.063-10.651,5.922
				c-0.145,0.689,0.172,1.295,0.507,1.936c0.377,0.72,0.766,1.463,0.634,2.405c-0.073,0.523-0.573,2.906-1.104,5.43
				c-0.921,4.386-1.965,9.357-2.078,10.633c-0.271,3.057,0.191,5.266,1.411,6.755c0.988,1.201,2.382,1.811,4.143,1.811
				c0.509,0,1.057-0.053,1.628-0.155c1.732-0.312,6.597-2.504,9.249-4.573c1.093,1.482,3.428,2.023,4.642,2.023
				c0.186,0,0.352-0.013,0.493-0.038l0.169-0.03c3.811-0.668,6.148-1.523,7.146-2.617c1.942-2.125,1.416-3.354,0.651-4.526
				c-0.428-0.654-0.765-1.172-0.484-2.329c0.467-1.92,2.089-9.834,3.273-15.613c0.587-2.865,1.094-5.34,1.152-5.571
				c0.435-1.539,0.036-2.513-0.375-3.057C163.2,22.764,162.265,22.057,160.353,22.057L160.353,22.057z"/>
		</g>
		<g>
			<path fill="#4D2600" d="M129.84,12.294c1.011,0,1.904,0.286,2.475,1.064c0.3,0.408,0.462,0.95,0.406,1.688
				c-0.028,0.371-0.215,1.368-0.556,2.989c-0.221,1.051-0.395,1.904-0.522,2.555l-3.854,18.504c-0.619,2.889-1.14,5.488-1.566,7.805
				c-0.425,2.314-0.658,3.729-0.694,4.242c-0.05,0.638,0.018,1.041,0.204,1.211c0.18,0.166,0.876,2.276,1.451,2.276
				c0.014,0,0.027-0.002,0.041-0.004l0,0c0.089,0,2.689,4.993-8.46,7.524c-1.883,0.427-3.369,0.596-4.531,0.596
				c-3.003,0-3.845-1.126-3.79-1.836c0.049-0.638,2.018-2.715,2.76-5.665c0.741-2.949,6.851-31.699,6.657-32.062
				c-1.314-2.436-3.459-6.148,6.035-9.947C127.122,12.744,128.573,12.294,129.84,12.294 M129.841,11.294L129.841,11.294
				c-1.188,0-2.641,0.341-4.318,1.013c-4.288,1.717-6.761,3.619-7.557,5.817c-0.761,2.102,0.145,3.919,0.875,5.276
				c-0.411,2.851-5.774,28.281-6.608,31.6c-0.437,1.733-1.367,3.189-1.983,4.153c-0.479,0.748-0.767,1.2-0.804,1.68
				c-0.043,0.566,0.173,1.138,0.608,1.608c0.551,0.595,1.724,1.304,4.179,1.304c1.338,0,2.937-0.209,4.752-0.62
				c8.819-2.003,9.761-5.646,9.537-7.64c-0.069-0.618-0.292-1.609-1.008-1.82c-0.191-0.272-0.472-0.9-0.586-1.157
				c-0.171-0.383-0.269-0.6-0.403-0.768c-0.011-0.073-0.022-0.231,0-0.521c0.032-0.466,0.262-1.855,0.681-4.14
				c0.431-2.336,0.955-4.952,1.561-7.775l3.855-18.51c0.13-0.658,0.303-1.508,0.522-2.554c0.468-2.224,0.553-2.835,0.574-3.118
				c0.07-0.929-0.131-1.722-0.598-2.356C132.629,12.096,131.66,11.294,129.841,11.294L129.841,11.294z"/>
		</g>
		<g>
			<path fill="#4D2600" d="M105.541,16.843c5.181,0,7.32,2.635,8.183,3.704c0.045,0.055,0.079,0.135,0.112,0.228
				c1.388,2.018,0.45,7.313-0.99,9.842c-0.589,1.035-1.675,1.766-2.65,2.029c-0.513,0.208-1.169,0.374-1.751,0.374
				c-0.688,0-1.274-0.23-1.405-0.893c-0.308-1.566-0.344-2.629-0.702-4.829c-0.433-1.735-1.688-2.686-3.515-2.686
				c-1.085,0-2.373,0.336-3.809,1.043c-3.742,1.843-8.104,8.038-9.834,15.535c-2.669,11.562-1.927,13.876-0.471,16.186
				c0.032,0.053,0.067,0.096,0.101,0.146c0.715,0.756,1.6,1.071,2.578,1.071c3.744,0,8.836-4.615,10.834-6.742
				c1.311-1.394,2.663-2.108,3.79-2.251c0.292-0.067,0.573-0.1,0.838-0.1c1.682,0,2.75,1.305,2.317,3.373
				c-0.716,3.433-7.958,12.928-18.688,14.858c-1.509,0.271-2.898,0.402-4.173,0.402c-3.673,0-6.393-1.087-8.273-3.035
				c-4.061-3.422-5.361-10.092-3.544-18.788c4.897-23.456,24.151-28.504,27.762-29.153
				C103.465,16.938,104.557,16.843,105.541,16.843 M105.541,15.843L105.541,15.843c-1.086,0-2.253,0.111-3.468,0.329
				c-2.373,0.427-23.335,4.894-28.563,29.933c-1.884,9.014-0.52,16.016,3.839,19.724c2.137,2.192,5.15,3.304,8.957,3.304
				c1.344,0,2.808-0.141,4.351-0.418c11.125-2.002,18.704-11.869,19.49-15.639c0.279-1.333,0.052-2.538-0.64-3.39
				c-0.622-0.765-1.565-1.187-2.656-1.187c-0.328,0-0.669,0.039-1.014,0.114c-1.44,0.198-2.981,1.103-4.343,2.551
				c-2.088,2.223-6.886,6.427-10.105,6.427c-0.74,0-1.331-0.232-1.806-0.71l-0.003-0.005c-1.333-2.112-2-4.308,0.576-15.461
				c1.739-7.536,6.09-13.282,9.301-14.863c1.249-0.615,2.413-0.94,3.367-0.94c1.356,0,2.208,0.636,2.535,1.89
				c0.159,0.98,0.253,1.739,0.337,2.41c0.103,0.823,0.192,1.534,0.363,2.409c0.211,1.065,1.103,1.7,2.386,1.7
				c0.634,0,1.386-0.154,2.072-0.425c1.316-0.374,2.538-1.321,3.199-2.483c1.501-2.636,2.644-8.228,1.016-10.796
				c-0.052-0.126-0.125-0.27-0.234-0.402C113.601,18.804,111.208,15.843,105.541,15.843L105.541,15.843L105.541,15.843z"/>
		</g>
	</g>
</g>
</svg>
